<mxfile modified="2022-10-01T10:41:01.824Z" host="app.diagrams.net" agent="5.0 (Macintosh; Intel Mac OS X 10_15_7) AppleWebKit/537.36 (KHTML, like Gecko) Chrome/106.0.0.0 Safari/537.36" etag="WrSiQjEWjSec2YNBPYmn" version="20.4.0" type="github">
  <diagram id="WI9T0HZ2pTsCkuznbFz-" name="Page-1">
    <mxGraphModel dx="1079" dy="1602" grid="1" gridSize="10" guides="1" tooltips="1" connect="1" arrows="1" fold="1" page="1" pageScale="1" pageWidth="1169" pageHeight="827" background="none" math="0" shadow="1">
      <root>
        <mxCell id="0" />
        <mxCell id="1" parent="0" />
        <mxCell id="AcxdMaKK0mU5kZiv2lnr-17" style="edgeStyle=elbowEdgeStyle;rounded=0;orthogonalLoop=1;jettySize=auto;html=1;entryX=-0.016;entryY=0.49;entryDx=0;entryDy=0;entryPerimeter=0;elbow=vertical;strokeColor=#808080;" parent="1" edge="1">
          <mxGeometry relative="1" as="geometry">
            <mxPoint x="378.9999999999998" y="-432.5" as="sourcePoint" />
            <mxPoint x="449.9760000000001" y="-432.6400000000001" as="targetPoint" />
          </mxGeometry>
        </mxCell>
        <mxCell id="AcxdMaKK0mU5kZiv2lnr-4" value="VNET1" style="rounded=0;whiteSpace=wrap;html=1;fillColor=#f5f5f5;strokeColor=default;fontColor=#333333;verticalAlign=top;dashed=1;" parent="1" vertex="1">
          <mxGeometry x="353" y="-546" width="240" height="140" as="geometry" />
        </mxCell>
        <mxCell id="arm5p2x8HVkZM8QBq5t8-2" value="" style="shape=image;verticalLabelPosition=bottom;labelBackgroundColor=#ffffff;verticalAlign=top;aspect=fixed;imageAspect=0;image=data:image/svg+xml,PHN2ZyB4bWxuczpjYz0iaHR0cDovL2NyZWF0aXZlY29tbW9ucy5vcmcvbnMjIiB4bWxuczpkYz0iaHR0cDovL3B1cmwub3JnL2RjL2VsZW1lbnRzLzEuMS8iIHhtbG5zOmlua3NjYXBlPSJodHRwOi8vd3d3Lmlua3NjYXBlLm9yZy9uYW1lc3BhY2VzL2lua3NjYXBlIiB4bWxuczpyZGY9Imh0dHA6Ly93d3cudzMub3JnLzE5OTkvMDIvMjItcmRmLXN5bnRheC1ucyMiIHhtbG5zOnNvZGlwb2RpPSJodHRwOi8vc29kaXBvZGkuc291cmNlZm9yZ2UubmV0L0RURC9zb2RpcG9kaS0wLmR0ZCIgeG1sbnM6c3ZnPSJodHRwOi8vd3d3LnczLm9yZy8yMDAwL3N2ZyIgeG1sbnM9Imh0dHA6Ly93d3cudzMub3JnLzIwMDAvc3ZnIiB4bWxuczp4bGluaz0iaHR0cDovL3d3dy53My5vcmcvMTk5OS94bGluayIgdmVyc2lvbj0iMS4xIiBpZD0ic3ZnODc5NzciIGlua3NjYXBlOnZlcnNpb249IjAuOTIuMyAoMjQwNTU0NiwgMjAxOC0wMy0xMSkiIHNvZGlwb2RpOmRvY25hbWU9Im5ldHdvcmtpbmdfdm5ldF9pbnRlZ3JhdGlvbi5zdmciIHg9IjBweCIgeT0iMHB4IiB2aWV3Qm94PSIwIDAgNDAuMzMgMjEuNjEiIHN0eWxlPSJlbmFibGUtYmFja2dyb3VuZDpuZXcgMCAwIDQwLjMzIDIxLjYxOyIgeG1sOnNwYWNlPSJwcmVzZXJ2ZSI+JiN4YTs8c29kaXBvZGk6bmFtZWR2aWV3IGJvcmRlcmNvbG9yPSIjNjY2NjY2IiBib3JkZXJvcGFjaXR5PSIxIiBmaXQtbWFyZ2luLWJvdHRvbT0iMCIgZml0LW1hcmdpbi1sZWZ0PSIwIiBmaXQtbWFyZ2luLXJpZ2h0PSIwIiBmaXQtbWFyZ2luLXRvcD0iMCIgZ3JpZHRvbGVyYW5jZT0iMTAiIGd1aWRldG9sZXJhbmNlPSIxMCIgaWQ9Im5hbWVkdmlldzg3OTc5IiBpbmtzY2FwZTpjdXJyZW50LWxheWVyPSJzdmc4Nzk3NyIgaW5rc2NhcGU6Y3g9IjE1Ljg1MTY2MSIgaW5rc2NhcGU6Y3k9IjcuOTY2NDg0OSIgaW5rc2NhcGU6cGFnZW9wYWNpdHk9IjAiIGlua3NjYXBlOnBhZ2VzaGFkb3c9IjIiIGlua3NjYXBlOndpbmRvdy1oZWlnaHQ9IjEwMTciIGlua3NjYXBlOndpbmRvdy1tYXhpbWl6ZWQ9IjEiIGlua3NjYXBlOndpbmRvdy13aWR0aD0iMTkyMCIgaW5rc2NhcGU6d2luZG93LXg9Ii04IiBpbmtzY2FwZTp3aW5kb3cteT0iLTgiIGlua3NjYXBlOnpvb209IjE1LjA0NjUxNiIgb2JqZWN0dG9sZXJhbmNlPSIxMCIgcGFnZWNvbG9yPSIjZmZmZmZmIiBzaG93Z3JpZD0iZmFsc2UiPiYjeGE7CTwvc29kaXBvZGk6bmFtZWR2aWV3PiYjeGE7PGcgaWQ9Imc4Nzk3NSI+JiN4YTsJPHRpdGxlIGlkPSJ0aXRsZTg3OTQ1Ij5QYWdlLTE8L3RpdGxlPiYjeGE7CTxnIGlkPSJncm91cDQ2MzgtMSI+JiN4YTsJCTx0aXRsZSBpZD0idGl0bGU4Nzk0NyI+TmV0d29ya2luZy9WTkVUIEludGVncmF0aW9uPC90aXRsZT4mI3hhOwkJPGcgaWQ9InNoYXBlNDYzOS0yIiB0cmFuc2Zvcm09InRyYW5zbGF0ZSgyOC4xMDIzKSI+JiN4YTsJCQk8dGl0bGUgaWQ9InRpdGxlODc5NDkiPlNoZWV0LjQ2Mzk8L3RpdGxlPiYjeGE7CQkJPHBhdGggaWQ9InBhdGg4Nzk1MSIgaW5rc2NhcGU6Y29ubmVjdG9yLWN1cnZhdHVyZT0iMCIgc3R5bGU9ImZpbGw6IzM5OTlDNjsiIGQ9Ik0xMi4yMywxMC42OEw5Ljg0LDguMjlMMS4zOSwwTDAsMS4yNmw5LjU4LDkuNDIgICAgIEwwLDIwLjM1bDEuMzksMS4yNmw4LjQ1LTguM0wxMi4yMywxMC42OHoiLz4mI3hhOwkJPC9nPiYjeGE7CQk8ZyBpZD0ic2hhcGU0NjQwLTQiPiYjeGE7CQkJPHRpdGxlIGlkPSJ0aXRsZTg3OTU0Ij5TaGVldC40NjQwPC90aXRsZT4mI3hhOwkJCTxwYXRoIGlkPSJwYXRoODc5NTYiIGlua3NjYXBlOmNvbm5lY3Rvci1jdXJ2YXR1cmU9IjAiIHN0eWxlPSJmaWxsOiMzOTk5QzY7IiBkPSJNMCwxMC42OGwyLjM5LTIuMzlMMTAuODQsMGwxLjM5LDEuMjYgICAgIGwtOS41OCw5LjQybDkuNTgsOS42N2wtMS4zOSwxLjI2bC04LjQ1LTguM0wwLDEwLjY4eiIvPiYjeGE7CQk8L2c+JiN4YTsJCTxnIGlkPSJzaGFwZTQ2NDEtNiIgdHJhbnNmb3JtPSJ0cmFuc2xhdGUoMTAuMzI5MiwtOC41MzE5NykiPiYjeGE7CQkJPHRpdGxlIGlkPSJ0aXRsZTg3OTU5Ij5TaGVldC40NjQxPC90aXRsZT4mI3hhOwkJCTxwYXRoIGlkPSJwYXRoODc5NjEiIGlua3NjYXBlOmNvbm5lY3Rvci1jdXJ2YXR1cmU9IjAiIHN0eWxlPSJmaWxsOiM3RkJBMDA7IiBkPSJNNC45MywxOS4yMWMwLDEuMzgtMS4xNCwyLjQtMi40MSwyLjQgICAgIGMtMS4yNiwwLTIuNTItMS4xNS0yLjUyLTIuNGMwLTEuMjYsMS4wMi0yLjM4LDIuNTItMi4zOEMzLjkxLDE2LjgzLDQuOTMsMTcuOTUsNC45MywxOS4yMXoiLz4mI3hhOwkJPC9nPiYjeGE7CQk8ZyBpZD0ic2hhcGU0NjQyLTgiIHRyYW5zZm9ybT0idHJhbnNsYXRlKDE3LjY0NTcsLTguNTMxOTcpIj4mI3hhOwkJCTx0aXRsZSBpZD0idGl0bGU4Nzk2NCI+U2hlZXQuNDY0MjwvdGl0bGU+JiN4YTsJCQk8cGF0aCBpZD0icGF0aDg3OTY2IiBpbmtzY2FwZTpjb25uZWN0b3ItY3VydmF0dXJlPSIwIiBzdHlsZT0iZmlsbDojN0ZCQTAwOyIgZD0iTTQuOTEsMTkuMjFjMCwxLjM4LTEuMTMsMi40LTIuMzksMi40ICAgICBTMCwyMC40NiwwLDE5LjIxYzAtMS4yNiwxLjEzLTIuMzgsMi41Mi0yLjM4UzQuOTEsMTcuOTUsNC45MSwxOS4yMXoiLz4mI3hhOwkJPC9nPiYjeGE7CQk8ZyBpZD0ic2hhcGU0NjQzLTEwIiB0cmFuc2Zvcm09InRyYW5zbGF0ZSgyNS4yMDEyLC04LjUzMTk3KSI+JiN4YTsJCQk8dGl0bGUgaWQ9InRpdGxlODc5NjkiPlNoZWV0LjQ2NDM8L3RpdGxlPiYjeGE7CQkJPHBhdGggaWQ9InBhdGg4Nzk3MSIgaW5rc2NhcGU6Y29ubmVjdG9yLWN1cnZhdHVyZT0iMCIgc3R5bGU9ImZpbGw6IzdGQkEwMDsiIGQ9Ik00LjgsMTkuMjFjMC0xLjMyLTEuMDktMi4zOC0yLjQxLTIuMzggICAgIEMxLjA4LDE2LjgzLDAsMTcuODksMCwxOS4yMXMxLjA4LDIuNCwyLjM5LDIuNEMzLjcxLDIxLjYxLDQuOCwyMC41Myw0LjgsMTkuMjF6Ii8+JiN4YTsJCTwvZz4mI3hhOwk8L2c+JiN4YTs8L2c+JiN4YTs8L3N2Zz4=;dashed=1;strokeColor=default;imageBackground=default;rounded=0;" vertex="1" parent="1">
          <mxGeometry x="533" y="-555.9999999999982" width="40" height="22" as="geometry" />
        </mxCell>
        <mxCell id="arm5p2x8HVkZM8QBq5t8-3" value="SUBNET1&#xa;" style="shape=image;verticalLabelPosition=bottom;labelBackgroundColor=#ffffff;verticalAlign=top;aspect=fixed;imageAspect=0;image=data:image/svg+xml,PHN2ZyB4bWxuczpjYz0iaHR0cDovL2NyZWF0aXZlY29tbW9ucy5vcmcvbnMjIiB4bWxuczpkYz0iaHR0cDovL3B1cmwub3JnL2RjL2VsZW1lbnRzLzEuMS8iIHhtbG5zOmlua3NjYXBlPSJodHRwOi8vd3d3Lmlua3NjYXBlLm9yZy9uYW1lc3BhY2VzL2lua3NjYXBlIiB4bWxuczpyZGY9Imh0dHA6Ly93d3cudzMub3JnLzE5OTkvMDIvMjItcmRmLXN5bnRheC1ucyMiIHhtbG5zOnNvZGlwb2RpPSJodHRwOi8vc29kaXBvZGkuc291cmNlZm9yZ2UubmV0L0RURC9zb2RpcG9kaS0wLmR0ZCIgeG1sbnM6c3ZnPSJodHRwOi8vd3d3LnczLm9yZy8yMDAwL3N2ZyIgeG1sbnM9Imh0dHA6Ly93d3cudzMub3JnLzIwMDAvc3ZnIiB4bWxuczp4bGluaz0iaHR0cDovL3d3dy53My5vcmcvMTk5OS94bGluayIgdmVyc2lvbj0iMS4xIiBpZD0ic3ZnOTkyNDkiIGlua3NjYXBlOnZlcnNpb249IjAuOTIuMyAoMjQwNTU0NiwgMjAxOC0wMy0xMSkiIHNvZGlwb2RpOmRvY25hbWU9InN1Ym5ldHMuc3ZnIiB4PSIwcHgiIHk9IjBweCIgdmlld0JveD0iMCAwIDM0Ljg0IDIxLjYxIiBzdHlsZT0iZW5hYmxlLWJhY2tncm91bmQ6bmV3IDAgMCAzNC44NCAyMS42MTsiIHhtbDpzcGFjZT0icHJlc2VydmUiPiYjeGE7PHNvZGlwb2RpOm5hbWVkdmlldyBib3JkZXJjb2xvcj0iIzY2NjY2NiIgYm9yZGVyb3BhY2l0eT0iMSIgZml0LW1hcmdpbi1ib3R0b209IjAiIGZpdC1tYXJnaW4tbGVmdD0iMCIgZml0LW1hcmdpbi1yaWdodD0iMCIgZml0LW1hcmdpbi10b3A9IjAiIGdyaWR0b2xlcmFuY2U9IjEwIiBndWlkZXRvbGVyYW5jZT0iMTAiIGlkPSJuYW1lZHZpZXc5OTI1MSIgaW5rc2NhcGU6Y3VycmVudC1sYXllcj0ic3ZnOTkyNDkiIGlua3NjYXBlOmN4PSI0MC45MTcxNDUiIGlua3NjYXBlOmN5PSIwLjYzNzUyNTg2IiBpbmtzY2FwZTpwYWdlb3BhY2l0eT0iMCIgaW5rc2NhcGU6cGFnZXNoYWRvdz0iMiIgaW5rc2NhcGU6d2luZG93LWhlaWdodD0iMTAxNyIgaW5rc2NhcGU6d2luZG93LW1heGltaXplZD0iMSIgaW5rc2NhcGU6d2luZG93LXdpZHRoPSIxOTIwIiBpbmtzY2FwZTp3aW5kb3cteD0iLTgiIGlua3NjYXBlOndpbmRvdy15PSItOCIgaW5rc2NhcGU6em9vbT0iMTAuNjM5NDk0IiBvYmplY3R0b2xlcmFuY2U9IjEwIiBwYWdlY29sb3I9IiNmZmZmZmYiIHNob3dncmlkPSJmYWxzZSI+JiN4YTsJPC9zb2RpcG9kaTpuYW1lZHZpZXc+JiN4YTs8ZyBpZD0iZzk5MjQ3IiB0cmFuc2Zvcm09InRyYW5zbGF0ZSgtNC4yMzMxNzQ5ZS01KSI+JiN4YTsJPHRpdGxlIGlkPSJ0aXRsZTk5MjI3Ij5QYWdlLTE8L3RpdGxlPiYjeGE7CTxnIGlkPSJncm91cDQ2NTQtMSI+JiN4YTsJCTx0aXRsZSBpZD0idGl0bGU5OTIyOSI+U3VibmV0czwvdGl0bGU+JiN4YTsJCTxnIGlkPSJzaGFwZTQ2NTUtMiIgdHJhbnNmb3JtPSJ0cmFuc2xhdGUoMjIuNjEzKSI+JiN4YTsJCQk8dGl0bGUgaWQ9InRpdGxlOTkyMzEiPlNoZWV0LjQ2NTU8L3RpdGxlPiYjeGE7CQkJPHBhdGggaWQ9InBhdGg5OTIzMyIgaW5rc2NhcGU6Y29ubmVjdG9yLWN1cnZhdHVyZT0iMCIgc3R5bGU9ImZpbGw6IzM5OTlDNjsiIGQ9Ik0xMi4yMywxMC42OEw5Ljg0LDguMjlMMS4zOSwwTDAsMS4yNmw5LjU4LDkuNDIgICAgIEwwLDIwLjM1bDEuMzksMS4yNmw4LjQ1LTguM0wxMi4yMywxMC42OHoiLz4mI3hhOwkJPC9nPiYjeGE7CQk8ZyBpZD0ic2hhcGU0NjU2LTQiPiYjeGE7CQkJPHRpdGxlIGlkPSJ0aXRsZTk5MjM2Ij5TaGVldC40NjU2PC90aXRsZT4mI3hhOwkJCTxwYXRoIGlkPSJwYXRoOTkyMzgiIGlua3NjYXBlOmNvbm5lY3Rvci1jdXJ2YXR1cmU9IjAiIHN0eWxlPSJmaWxsOiMzOTk5QzY7IiBkPSJNMCwxMC42OGwyLjM5LTIuMzlMMTAuODQsMGwxLjM5LDEuMjYgICAgIGwtOS41OCw5LjQybDkuNTgsOS42N2wtMS4zOSwxLjI2bC04LjQ1LTguM0wwLDEwLjY4eiIvPiYjeGE7CQk8L2c+JiN4YTsJCTxnIGlkPSJzaGFwZTQ2NTctNiIgdHJhbnNmb3JtPSJ0cmFuc2xhdGUoMTQuODY4NSwtOC41MzE5NykiPiYjeGE7CQkJPHRpdGxlIGlkPSJ0aXRsZTk5MjQxIj5TaGVldC40NjU3PC90aXRsZT4mI3hhOwkJCTxwYXRoIGlkPSJwYXRoOTkyNDMiIGlua3NjYXBlOmNvbm5lY3Rvci1jdXJ2YXR1cmU9IjAiIHN0eWxlPSJmaWxsOiM3RkJBMDA7IiBkPSJNNC45MSwxOS4yMWMwLDEuMzgtMS4xMywyLjQtMi4zOSwyLjQgICAgIFMwLDIwLjQ2LDAsMTkuMjFjMC0xLjI2LDEuMTMtMi4zOCwyLjUyLTIuMzhTNC45MSwxNy45NSw0LjkxLDE5LjIxeiIvPiYjeGE7CQk8L2c+JiN4YTsJPC9nPiYjeGE7PC9nPiYjeGE7PC9zdmc+;dashed=1;strokeColor=default;rounded=0;" vertex="1" parent="1">
          <mxGeometry x="455.5" y="-496" width="35" height="22" as="geometry" />
        </mxCell>
        <mxCell id="arm5p2x8HVkZM8QBq5t8-4" value="VNET2" style="rounded=0;whiteSpace=wrap;html=1;fillColor=#F5F5F5;strokeColor=default;fontColor=#333333;verticalAlign=top;dashed=1;" vertex="1" parent="1">
          <mxGeometry x="703" y="-546" width="240" height="140" as="geometry" />
        </mxCell>
        <mxCell id="arm5p2x8HVkZM8QBq5t8-5" value="" style="shape=image;verticalLabelPosition=bottom;labelBackgroundColor=#ffffff;verticalAlign=top;aspect=fixed;imageAspect=0;image=data:image/svg+xml,PHN2ZyB4bWxuczpjYz0iaHR0cDovL2NyZWF0aXZlY29tbW9ucy5vcmcvbnMjIiB4bWxuczpkYz0iaHR0cDovL3B1cmwub3JnL2RjL2VsZW1lbnRzLzEuMS8iIHhtbG5zOmlua3NjYXBlPSJodHRwOi8vd3d3Lmlua3NjYXBlLm9yZy9uYW1lc3BhY2VzL2lua3NjYXBlIiB4bWxuczpyZGY9Imh0dHA6Ly93d3cudzMub3JnLzE5OTkvMDIvMjItcmRmLXN5bnRheC1ucyMiIHhtbG5zOnNvZGlwb2RpPSJodHRwOi8vc29kaXBvZGkuc291cmNlZm9yZ2UubmV0L0RURC9zb2RpcG9kaS0wLmR0ZCIgeG1sbnM6c3ZnPSJodHRwOi8vd3d3LnczLm9yZy8yMDAwL3N2ZyIgeG1sbnM9Imh0dHA6Ly93d3cudzMub3JnLzIwMDAvc3ZnIiB4bWxuczp4bGluaz0iaHR0cDovL3d3dy53My5vcmcvMTk5OS94bGluayIgdmVyc2lvbj0iMS4xIiBpZD0ic3ZnODc5NzciIGlua3NjYXBlOnZlcnNpb249IjAuOTIuMyAoMjQwNTU0NiwgMjAxOC0wMy0xMSkiIHNvZGlwb2RpOmRvY25hbWU9Im5ldHdvcmtpbmdfdm5ldF9pbnRlZ3JhdGlvbi5zdmciIHg9IjBweCIgeT0iMHB4IiB2aWV3Qm94PSIwIDAgNDAuMzMgMjEuNjEiIHN0eWxlPSJlbmFibGUtYmFja2dyb3VuZDpuZXcgMCAwIDQwLjMzIDIxLjYxOyIgeG1sOnNwYWNlPSJwcmVzZXJ2ZSI+JiN4YTs8c29kaXBvZGk6bmFtZWR2aWV3IGJvcmRlcmNvbG9yPSIjNjY2NjY2IiBib3JkZXJvcGFjaXR5PSIxIiBmaXQtbWFyZ2luLWJvdHRvbT0iMCIgZml0LW1hcmdpbi1sZWZ0PSIwIiBmaXQtbWFyZ2luLXJpZ2h0PSIwIiBmaXQtbWFyZ2luLXRvcD0iMCIgZ3JpZHRvbGVyYW5jZT0iMTAiIGd1aWRldG9sZXJhbmNlPSIxMCIgaWQ9Im5hbWVkdmlldzg3OTc5IiBpbmtzY2FwZTpjdXJyZW50LWxheWVyPSJzdmc4Nzk3NyIgaW5rc2NhcGU6Y3g9IjE1Ljg1MTY2MSIgaW5rc2NhcGU6Y3k9IjcuOTY2NDg0OSIgaW5rc2NhcGU6cGFnZW9wYWNpdHk9IjAiIGlua3NjYXBlOnBhZ2VzaGFkb3c9IjIiIGlua3NjYXBlOndpbmRvdy1oZWlnaHQ9IjEwMTciIGlua3NjYXBlOndpbmRvdy1tYXhpbWl6ZWQ9IjEiIGlua3NjYXBlOndpbmRvdy13aWR0aD0iMTkyMCIgaW5rc2NhcGU6d2luZG93LXg9Ii04IiBpbmtzY2FwZTp3aW5kb3cteT0iLTgiIGlua3NjYXBlOnpvb209IjE1LjA0NjUxNiIgb2JqZWN0dG9sZXJhbmNlPSIxMCIgcGFnZWNvbG9yPSIjZmZmZmZmIiBzaG93Z3JpZD0iZmFsc2UiPiYjeGE7CTwvc29kaXBvZGk6bmFtZWR2aWV3PiYjeGE7PGcgaWQ9Imc4Nzk3NSI+JiN4YTsJPHRpdGxlIGlkPSJ0aXRsZTg3OTQ1Ij5QYWdlLTE8L3RpdGxlPiYjeGE7CTxnIGlkPSJncm91cDQ2MzgtMSI+JiN4YTsJCTx0aXRsZSBpZD0idGl0bGU4Nzk0NyI+TmV0d29ya2luZy9WTkVUIEludGVncmF0aW9uPC90aXRsZT4mI3hhOwkJPGcgaWQ9InNoYXBlNDYzOS0yIiB0cmFuc2Zvcm09InRyYW5zbGF0ZSgyOC4xMDIzKSI+JiN4YTsJCQk8dGl0bGUgaWQ9InRpdGxlODc5NDkiPlNoZWV0LjQ2Mzk8L3RpdGxlPiYjeGE7CQkJPHBhdGggaWQ9InBhdGg4Nzk1MSIgaW5rc2NhcGU6Y29ubmVjdG9yLWN1cnZhdHVyZT0iMCIgc3R5bGU9ImZpbGw6IzM5OTlDNjsiIGQ9Ik0xMi4yMywxMC42OEw5Ljg0LDguMjlMMS4zOSwwTDAsMS4yNmw5LjU4LDkuNDIgICAgIEwwLDIwLjM1bDEuMzksMS4yNmw4LjQ1LTguM0wxMi4yMywxMC42OHoiLz4mI3hhOwkJPC9nPiYjeGE7CQk8ZyBpZD0ic2hhcGU0NjQwLTQiPiYjeGE7CQkJPHRpdGxlIGlkPSJ0aXRsZTg3OTU0Ij5TaGVldC40NjQwPC90aXRsZT4mI3hhOwkJCTxwYXRoIGlkPSJwYXRoODc5NTYiIGlua3NjYXBlOmNvbm5lY3Rvci1jdXJ2YXR1cmU9IjAiIHN0eWxlPSJmaWxsOiMzOTk5QzY7IiBkPSJNMCwxMC42OGwyLjM5LTIuMzlMMTAuODQsMGwxLjM5LDEuMjYgICAgIGwtOS41OCw5LjQybDkuNTgsOS42N2wtMS4zOSwxLjI2bC04LjQ1LTguM0wwLDEwLjY4eiIvPiYjeGE7CQk8L2c+JiN4YTsJCTxnIGlkPSJzaGFwZTQ2NDEtNiIgdHJhbnNmb3JtPSJ0cmFuc2xhdGUoMTAuMzI5MiwtOC41MzE5NykiPiYjeGE7CQkJPHRpdGxlIGlkPSJ0aXRsZTg3OTU5Ij5TaGVldC40NjQxPC90aXRsZT4mI3hhOwkJCTxwYXRoIGlkPSJwYXRoODc5NjEiIGlua3NjYXBlOmNvbm5lY3Rvci1jdXJ2YXR1cmU9IjAiIHN0eWxlPSJmaWxsOiM3RkJBMDA7IiBkPSJNNC45MywxOS4yMWMwLDEuMzgtMS4xNCwyLjQtMi40MSwyLjQgICAgIGMtMS4yNiwwLTIuNTItMS4xNS0yLjUyLTIuNGMwLTEuMjYsMS4wMi0yLjM4LDIuNTItMi4zOEMzLjkxLDE2LjgzLDQuOTMsMTcuOTUsNC45MywxOS4yMXoiLz4mI3hhOwkJPC9nPiYjeGE7CQk8ZyBpZD0ic2hhcGU0NjQyLTgiIHRyYW5zZm9ybT0idHJhbnNsYXRlKDE3LjY0NTcsLTguNTMxOTcpIj4mI3hhOwkJCTx0aXRsZSBpZD0idGl0bGU4Nzk2NCI+U2hlZXQuNDY0MjwvdGl0bGU+JiN4YTsJCQk8cGF0aCBpZD0icGF0aDg3OTY2IiBpbmtzY2FwZTpjb25uZWN0b3ItY3VydmF0dXJlPSIwIiBzdHlsZT0iZmlsbDojN0ZCQTAwOyIgZD0iTTQuOTEsMTkuMjFjMCwxLjM4LTEuMTMsMi40LTIuMzksMi40ICAgICBTMCwyMC40NiwwLDE5LjIxYzAtMS4yNiwxLjEzLTIuMzgsMi41Mi0yLjM4UzQuOTEsMTcuOTUsNC45MSwxOS4yMXoiLz4mI3hhOwkJPC9nPiYjeGE7CQk8ZyBpZD0ic2hhcGU0NjQzLTEwIiB0cmFuc2Zvcm09InRyYW5zbGF0ZSgyNS4yMDEyLC04LjUzMTk3KSI+JiN4YTsJCQk8dGl0bGUgaWQ9InRpdGxlODc5NjkiPlNoZWV0LjQ2NDM8L3RpdGxlPiYjeGE7CQkJPHBhdGggaWQ9InBhdGg4Nzk3MSIgaW5rc2NhcGU6Y29ubmVjdG9yLWN1cnZhdHVyZT0iMCIgc3R5bGU9ImZpbGw6IzdGQkEwMDsiIGQ9Ik00LjgsMTkuMjFjMC0xLjMyLTEuMDktMi4zOC0yLjQxLTIuMzggICAgIEMxLjA4LDE2LjgzLDAsMTcuODksMCwxOS4yMXMxLjA4LDIuNCwyLjM5LDIuNEMzLjcxLDIxLjYxLDQuOCwyMC41Myw0LjgsMTkuMjF6Ii8+JiN4YTsJCTwvZz4mI3hhOwk8L2c+JiN4YTs8L2c+JiN4YTs8L3N2Zz4=;dashed=1;strokeColor=default;imageBackground=default;rounded=0;" vertex="1" parent="1">
          <mxGeometry x="893" y="-555.9999999999982" width="40" height="22" as="geometry" />
        </mxCell>
        <mxCell id="arm5p2x8HVkZM8QBq5t8-9" value="" style="endArrow=classic;startArrow=classic;html=1;rounded=0;exitX=1;exitY=0.5;exitDx=0;exitDy=0;entryX=0;entryY=0.5;entryDx=0;entryDy=0;" edge="1" parent="1" source="AcxdMaKK0mU5kZiv2lnr-4" target="arm5p2x8HVkZM8QBq5t8-4">
          <mxGeometry width="50" height="50" relative="1" as="geometry">
            <mxPoint x="653" y="-306" as="sourcePoint" />
            <mxPoint x="703" y="-356" as="targetPoint" />
          </mxGeometry>
        </mxCell>
        <mxCell id="arm5p2x8HVkZM8QBq5t8-14" value="PEERING" style="edgeLabel;html=1;align=center;verticalAlign=middle;resizable=0;points=[];rounded=0;" vertex="1" connectable="0" parent="arm5p2x8HVkZM8QBq5t8-9">
          <mxGeometry x="0.1909" y="2" relative="1" as="geometry">
            <mxPoint x="-5" y="2" as="offset" />
          </mxGeometry>
        </mxCell>
        <mxCell id="arm5p2x8HVkZM8QBq5t8-44" style="edgeStyle=orthogonalEdgeStyle;orthogonalLoop=1;jettySize=auto;html=1;entryX=0.398;entryY=1.015;entryDx=0;entryDy=0;entryPerimeter=0;dashed=1;opacity=50;" edge="1" parent="1" source="arm5p2x8HVkZM8QBq5t8-11" target="arm5p2x8HVkZM8QBq5t8-37">
          <mxGeometry relative="1" as="geometry" />
        </mxCell>
        <mxCell id="arm5p2x8HVkZM8QBq5t8-11" value="&lt;h1&gt;VNET peering&lt;/h1&gt;&lt;p&gt;vnet peering will be required for communication between VNETs&lt;/p&gt;" style="text;html=1;strokeColor=#b85450;fillColor=#f8cecc;spacing=5;spacingTop=-20;whiteSpace=wrap;overflow=hidden;rounded=0;dashed=1;" vertex="1" parent="1">
          <mxGeometry x="70" y="-104.5" width="180" height="96" as="geometry" />
        </mxCell>
        <mxCell id="arm5p2x8HVkZM8QBq5t8-17" value="ONPREM" style="rounded=0;whiteSpace=wrap;html=1;fillColor=#f5f5f5;strokeColor=default;fontColor=#333333;verticalAlign=top;dashed=1;" vertex="1" parent="1">
          <mxGeometry x="733.01" y="12" width="180" height="116" as="geometry" />
        </mxCell>
        <mxCell id="arm5p2x8HVkZM8QBq5t8-15" value="PROXY SERVER&#xa;" style="shape=image;verticalLabelPosition=bottom;labelBackgroundColor=#ffffff;verticalAlign=top;aspect=fixed;imageAspect=0;image=data:image/svg+xml,PHN2ZyB4bWxuczpkYz0iaHR0cDovL3B1cmwub3JnL2RjL2VsZW1lbnRzLzEuMS8iIHhtbG5zOmNjPSJodHRwOi8vY3JlYXRpdmVjb21tb25zLm9yZy9ucyMiIHhtbG5zOnJkZj0iaHR0cDovL3d3dy53My5vcmcvMTk5OS8wMi8yMi1yZGYtc3ludGF4LW5zIyIgeG1sbnM6c3ZnPSJodHRwOi8vd3d3LnczLm9yZy8yMDAwL3N2ZyIgeG1sbnM9Imh0dHA6Ly93d3cudzMub3JnLzIwMDAvc3ZnIiB4bWxuczpzb2RpcG9kaT0iaHR0cDovL3NvZGlwb2RpLnNvdXJjZWZvcmdlLm5ldC9EVEQvc29kaXBvZGktMC5kdGQiIHhtbG5zOmlua3NjYXBlPSJodHRwOi8vd3d3Lmlua3NjYXBlLm9yZy9uYW1lc3BhY2VzL2lua3NjYXBlIiB2ZXJzaW9uPSIxLjEiIGlkPSJzdmc2MTAxMSIgaW5rc2NhcGU6dmVyc2lvbj0iMC45Mi4zICgyNDA1NTQ2LCAyMDE4LTAzLTExKSIgc29kaXBvZGk6ZG9jbmFtZT0iYXp1cmVfcG9ydGFsX3ZpcnR1YWxfbWFjaGluZXMuc3ZnIiB4PSIwcHgiIHk9IjBweCIgdmlld0JveD0iMCAwIDU3LjY0IDUzLjIwMDAwMiIgeG1sOnNwYWNlPSJwcmVzZXJ2ZSIgd2lkdGg9IjU3LjYzOTk5OSIgaGVpZ2h0PSI1My4yMDAwMDEiPjxtZXRhZGF0YSBpZD0ibWV0YWRhdGExMDk5MCI+PHJkZjpSREY+PGNjOldvcmsgcmRmOmFib3V0PSIiPjxkYzpmb3JtYXQ+aW1hZ2Uvc3ZnK3htbDwvZGM6Zm9ybWF0PjxkYzp0eXBlIHJkZjpyZXNvdXJjZT0iaHR0cDovL3B1cmwub3JnL2RjL2RjbWl0eXBlL1N0aWxsSW1hZ2UiLz48ZGM6dGl0bGUvPjwvY2M6V29yaz48L3JkZjpSREY+PC9tZXRhZGF0YT48ZGVmcyBpZD0iZGVmczEwOTg4Ii8+JiN4YTs8ZmlsdGVyIGlkPSJmaWx0ZXJfMiI+JiN4YTsJPGZlR2F1c3NpYW5CbHVyIGlkPSJmZUdhdXNzaWFuQmx1cjYwOTIwIiBzdGREZXZpYXRpb249IjIiLz4mI3hhOzwvZmlsdGVyPiYjeGE7PHNvZGlwb2RpOm5hbWVkdmlldyBib3JkZXJjb2xvcj0iIzY2NjY2NiIgYm9yZGVyb3BhY2l0eT0iMSIgZml0LW1hcmdpbi1ib3R0b209IjAiIGZpdC1tYXJnaW4tbGVmdD0iMCIgZml0LW1hcmdpbi1yaWdodD0iMCIgZml0LW1hcmdpbi10b3A9IjAiIGdyaWR0b2xlcmFuY2U9IjEwIiBndWlkZXRvbGVyYW5jZT0iMTAiIGlkPSJuYW1lZHZpZXc2MTAxMyIgaW5rc2NhcGU6Y3VycmVudC1sYXllcj0ic3ZnNjEwMTEiIGlua3NjYXBlOmN4PSItMzMuMTQzMzAzIiBpbmtzY2FwZTpjeT0iMjQuNjk2NTQ0IiBpbmtzY2FwZTpwYWdlb3BhY2l0eT0iMCIgaW5rc2NhcGU6cGFnZXNoYWRvdz0iMiIgaW5rc2NhcGU6d2luZG93LWhlaWdodD0iMTAxNyIgaW5rc2NhcGU6d2luZG93LW1heGltaXplZD0iMSIgaW5rc2NhcGU6d2luZG93LXdpZHRoPSIxOTIwIiBpbmtzY2FwZTp3aW5kb3cteD0iLTgiIGlua3NjYXBlOndpbmRvdy15PSItOCIgaW5rc2NhcGU6em9vbT0iNS45MTg3NzA5IiBvYmplY3R0b2xlcmFuY2U9IjEwIiBwYWdlY29sb3I9IiNmZmZmZmYiIHNob3dncmlkPSJmYWxzZSI+JiN4YTsJPC9zb2RpcG9kaTpuYW1lZHZpZXc+JiN4YTsmI3hhOzxwYXRoIGlkPSJwYXRoNjA5MzMiIGlua3NjYXBlOmNvbm5lY3Rvci1jdXJ2YXR1cmU9IjAiIHN0eWxlPSJmaWxsOiM3YTdhN2EiIGQ9Ik0gMzcuMzksNDIuMTIgSCAzNi4wMSAyMi40MiAyMS43MSBjIDEuODgsNi42NSAtMC42NSw3LjYgLTExLjczLDcuNiB2IDMuNDggaCAxNC4xIDEwLjI5IDEzLjMgdiAtMy40OCBjIC0xMS4wOCwwIC0xMi4xNywtMC45NSAtMTAuMjgsLTcuNiB6Ii8+JiN4YTsmI3hhOzxwYXRoIGlkPSJwYXRoNjA5NDEiIGlua3NjYXBlOmNvbm5lY3Rvci1jdXJ2YXR1cmU9IjAiIHN0eWxlPSJmaWxsOiNhMGExYTIiIGQ9Ik0gNTQuMTYsMCBIIDMuMTMgQyAxLjQsMCAwLDEuNTUgMCwzLjI4IHYgMzUuNTkgYyAwLDEuNzIgMS40LDMuMjUgMy4xMywzLjI1IGggNTEuMDMgYyAxLjczLDAgMy40OCwtMS41MyAzLjQ4LC0zLjI1IFYgMy4yOCBDIDU3LjY0LDEuNTUgNTUuODksMCA1NC4xNiwwIFoiLz4mI3hhOyYjeGE7PHBhdGggaWQ9InBhdGg2MDk0OSIgaW5rc2NhcGU6Y29ubmVjdG9yLWN1cnZhdHVyZT0iMCIgc3R5bGU9ImZpbGw6I2ZmZmZmZjtmaWxsLW9wYWNpdHk6MC4yIiBkPSJNIDU0LjIsMCBDIDU0LjE5LDAgNTQuMTcsMCA1NC4xNiwwIEggMy4xMyBDIDEuNCwwIDAsMS41NSAwLDMuMjggdiAzNS41OSBjIDAsMS43MiAxLjQsMy4yNSAzLjEzLDMuMjUgaCAxLjIyIHoiLz4mI3hhOyYjeGE7PHJlY3QgaWQ9InJlY3Q2MDk1NyIgeD0iNC4zNjk5OTUxIiB5PSI0LjQ0MDAwMDEiIHN0eWxlPSJmaWxsOiM1OWI0ZDkiIHdpZHRoPSI0OC43Nzk5OTkiIGhlaWdodD0iMzMuMjUiLz4mI3hhOyYjeGE7JiN4YTsmI3hhOzxyZWN0IGlkPSJyZWN0NjA5NzMiIHg9IjkuOTc5OTk1NyIgeT0iNDkuNzIwMDAxIiBzdHlsZT0iZmlsbDojYTBhMWEyIiB3aWR0aD0iMzcuNjg5OTk5IiBoZWlnaHQ9IjMuNDgiLz4mI3hhOyYjeGE7PHBhdGggaWQ9InBhdGg2MDk4MSIgaW5rc2NhcGU6Y29ubmVjdG9yLWN1cnZhdHVyZT0iMCIgc3R5bGU9ImZpbGw6I2I4ZDQzMiIgZD0ibSAyOS40MiwyLjQyIGMgMCwwLjQ1IC0wLjM3LDAuODEgLTAuODIsMC44MSAtMC40NiwwIC0wLjgyLC0wLjM2IC0wLjgyLC0wLjgxIDAsLTAuNDYgMC4zNiwtMC44MiAwLjgyLC0wLjgyIDAuNDUsMCAwLjgyLDAuMzYgMC44MiwwLjgyIHoiLz4mI3hhOyYjeGE7PHBhdGggaWQ9InBhdGg2MDk4OSIgaW5rc2NhcGU6Y29ubmVjdG9yLWN1cnZhdHVyZT0iMCIgc3R5bGU9ImZpbGw6I2ZmZmZmZiIgZD0ibSAyOS40NSwyMC4wNSBjIC0wLjA2LDAgLTAuMTEsLTAuMDEgLTAuMTYsLTAuMDQgTCAxOS4xNCwxNC4xNSBjIC0wLjA5LC0wLjA1IC0wLjE1LC0wLjE2IC0wLjE1LC0wLjI2IDAsLTAuMTEgMC4wNiwtMC4yMiAwLjE1LC0wLjI3IEwgMjkuMjMsNy44IGMgMC4xLC0wLjA1IDAuMjEsLTAuMDUgMC4zLDAgbCAxMC4xNiw1Ljg2IGMgMC4wOSwwLjA1IDAuMTUsMC4xNiAwLjE1LDAuMjcgMCwwLjExIC0wLjA2LDAuMjEgLTAuMTUsMC4yNiBMIDI5LjYsMjAuMDEgYyAtMC4wNSwwLjAzIC0wLjEsMC4wNCAtMC4xNSwwLjA0IHoiLz4mI3hhOyYjeGE7PHBhdGggaWQ9InBhdGg2MDk5NyIgaW5rc2NhcGU6Y29ubmVjdG9yLWN1cnZhdHVyZT0iMCIgc3R5bGU9ImZpbGw6I2ZmZmZmZjtmaWxsLW9wYWNpdHk6MC43IiBkPSJtIDI3Ljk5LDM0LjI5IGMgLTAuMDYsMCAtMC4xMSwtMC4wMSAtMC4xNSwtMC4wNCBMIDE3LjcyLDI4LjQxIGMgLTAuMSwtMC4wNSAtMC4xNiwtMC4xNSAtMC4xNiwtMC4yNiBWIDE2LjQzIGMgMCwtMC4xMSAwLjA2LC0wLjIyIDAuMTYsLTAuMjcgMC4wOSwtMC4wNiAwLjIxLC0wLjA2IDAuMzEsMCBMIDI4LjE0LDIyIGMgMC4wOSwwLjA2IDAuMTUsMC4xNiAwLjE1LDAuMjcgdiAxMS43MiBjIDAsMC4xMSAtMC4wNiwwLjIxIC0wLjE1LDAuMjYgLTAuMDUsMC4wMyAtMC4xLDAuMDQgLTAuMTUsMC4wNCB6Ii8+JiN4YTsmI3hhOzxwYXRoIGlkPSJwYXRoNjEwMDUiIGlua3NjYXBlOmNvbm5lY3Rvci1jdXJ2YXR1cmU9IjAiIHN0eWxlPSJmaWxsOiNmZmZmZmY7ZmlsbC1vcGFjaXR5OjAuNCIgZD0iTSAzMC44NiwzNC4yOSBDIDMwLjgsMzQuMjkgMzAuNzUsMzQuMjggMzAuNywzNC4yNSAzMC42MSwzNC4yIDMwLjU1LDM0LjEgMzAuNTUsMzMuOTkgViAyMi4zNCBjIDAsLTAuMTEgMC4wNiwtMC4yMSAwLjE1LC0wLjI3IGwgMTAuMTIsLTUuODMgYyAwLjA5LC0wLjA2IDAuMjEsLTAuMDYgMC4zLDAgMC4xLDAuMDUgMC4xNiwwLjE1IDAuMTYsMC4yNiB2IDExLjY1IGMgMCwwLjExIC0wLjA2LDAuMjEgLTAuMTYsMC4yNiBsIC0xMC4xMSw1Ljg0IGMgLTAuMDQsMC4wMyAtMC4xLDAuMDQgLTAuMTUsMC4wNCB6Ii8+JiN4YTs8L3N2Zz4=;dashed=1;strokeColor=default;fillColor=#F5F5F5;rounded=0;" vertex="1" parent="1">
          <mxGeometry x="803.57" y="40" width="38.85" height="35.5" as="geometry" />
        </mxCell>
        <mxCell id="arm5p2x8HVkZM8QBq5t8-43" style="edgeStyle=orthogonalEdgeStyle;orthogonalLoop=1;jettySize=auto;html=1;entryX=0.5;entryY=0;entryDx=0;entryDy=0;dashed=1;opacity=50;" edge="1" parent="1" source="arm5p2x8HVkZM8QBq5t8-21" target="AcxdMaKK0mU5kZiv2lnr-4">
          <mxGeometry relative="1" as="geometry" />
        </mxCell>
        <mxCell id="arm5p2x8HVkZM8QBq5t8-21" value="&lt;h1&gt;Proxy Connectivity&lt;/h1&gt;&lt;div&gt;Servers in subnet1 must be able to reach the proxy server ONPREM&lt;/div&gt;" style="text;html=1;strokeColor=#d6b656;fillColor=#fff2cc;spacing=5;spacingTop=-20;whiteSpace=wrap;overflow=hidden;rounded=0;dashed=1;" vertex="1" parent="1">
          <mxGeometry x="320" y="-700" width="230" height="96" as="geometry" />
        </mxCell>
        <mxCell id="arm5p2x8HVkZM8QBq5t8-32" value="EXP-ROUTE1" style="rounded=0;whiteSpace=wrap;html=1;fillColor=#f5f5f5;strokeColor=default;fontColor=#333333;verticalAlign=top;dashed=1;" vertex="1" parent="1">
          <mxGeometry x="692.5" y="-251" width="261" height="140" as="geometry" />
        </mxCell>
        <mxCell id="arm5p2x8HVkZM8QBq5t8-36" style="edgeStyle=orthogonalEdgeStyle;orthogonalLoop=1;jettySize=auto;html=1;entryX=0.001;entryY=0.642;entryDx=0;entryDy=0;entryPerimeter=0;dashed=1;" edge="1" parent="1" source="arm5p2x8HVkZM8QBq5t8-28" target="arm5p2x8HVkZM8QBq5t8-17">
          <mxGeometry relative="1" as="geometry" />
        </mxCell>
        <mxCell id="arm5p2x8HVkZM8QBq5t8-28" value="&lt;h1&gt;TRAFFIC SCAN&lt;/h1&gt;&lt;div&gt;PROXY SERVER scans all outbound traffic to the internet for servers in SUBNET1&lt;/div&gt;" style="text;html=1;strokeColor=#d6b656;fillColor=#fff2cc;spacing=5;spacingTop=-20;whiteSpace=wrap;overflow=hidden;rounded=0;dashed=1;" vertex="1" parent="1">
          <mxGeometry x="708.01" y="180" width="230" height="102" as="geometry" />
        </mxCell>
        <mxCell id="arm5p2x8HVkZM8QBq5t8-30" value="VNET GATEWAY" style="aspect=fixed;html=1;points=[];align=center;image;fontSize=12;image=img/lib/azure2/networking/Virtual_Network_Gateways.svg;" vertex="1" parent="1">
          <mxGeometry x="797" y="-215.5" width="52" height="69" as="geometry" />
        </mxCell>
        <mxCell id="arm5p2x8HVkZM8QBq5t8-18" value="" style="aspect=fixed;html=1;points=[];align=center;image;fontSize=12;image=img/lib/mscae/Express_Route.svg;dashed=1;strokeColor=default;fillColor=#F5F5F5;rounded=0;imageBackground=default;" vertex="1" parent="1">
          <mxGeometry x="884.66" y="-263" width="58.34" height="35" as="geometry" />
        </mxCell>
        <mxCell id="arm5p2x8HVkZM8QBq5t8-34" value="" style="endArrow=classic;startArrow=classic;html=1;entryX=0.5;entryY=1;entryDx=0;entryDy=0;exitX=0.5;exitY=0;exitDx=0;exitDy=0;" edge="1" parent="1" source="arm5p2x8HVkZM8QBq5t8-32" target="arm5p2x8HVkZM8QBq5t8-4">
          <mxGeometry width="50" height="50" relative="1" as="geometry">
            <mxPoint x="760" y="-300" as="sourcePoint" />
            <mxPoint x="570" y="-200" as="targetPoint" />
          </mxGeometry>
        </mxCell>
        <mxCell id="arm5p2x8HVkZM8QBq5t8-35" value="" style="endArrow=classic;startArrow=classic;html=1;exitX=0.5;exitY=1;exitDx=0;exitDy=0;" edge="1" parent="1" source="arm5p2x8HVkZM8QBq5t8-32" target="arm5p2x8HVkZM8QBq5t8-17">
          <mxGeometry width="50" height="50" relative="1" as="geometry">
            <mxPoint x="520" y="-150" as="sourcePoint" />
            <mxPoint x="440" y="-90" as="targetPoint" />
          </mxGeometry>
        </mxCell>
        <mxCell id="arm5p2x8HVkZM8QBq5t8-38" style="edgeStyle=orthogonalEdgeStyle;orthogonalLoop=1;jettySize=auto;html=1;dashed=1;opacity=50;" edge="1" parent="1" source="arm5p2x8HVkZM8QBq5t8-37">
          <mxGeometry relative="1" as="geometry">
            <mxPoint x="650" y="-450" as="targetPoint" />
          </mxGeometry>
        </mxCell>
        <mxCell id="arm5p2x8HVkZM8QBq5t8-37" value="" style="shape=image;verticalLabelPosition=bottom;labelBackgroundColor=default;verticalAlign=top;aspect=fixed;imageAspect=0;image=data:image/png,iVBORw0KGgoAAAANSUhEUgAAA14AAADsCAYAAABkMncRAAAMQGlDQ1BJQ0MgUHJvZmlsZQAASImVVwdYU8kWnluSkEBoAQSkhN4E6QSQEkILIL0INkISIJQYA0HFjiwquHaxgA1dFVHsgNgRxcIi2PuCiIqyLhbsypsU0HVf+d5839z57z9n/nPm3Jl77wCgdpojEuWg6gDkCvPFsSEB9HHJKXTSE0AG6oAELIAFh5snYkZHRwBYhtq/l3c3ASJtr9lLtf7Z/1+LBo+fxwUAiYY4jZfHzYX4MAB4JVckzgeAKOXNpuWLpBhWoCWGAUK8SIoz5LhSitPkeL/MJj6WBXEzAEoqHI44AwDVdsjTC7gZUEO1H2JHIU8gBECNDrFvbu4UHsSpEFtDGxHEUn1G2g86GX/TTBvW5HAyhrF8LrKiFCjIE+VwZvyf6fjfJTdHMuTDElaVTHForHTOMG+3s6eES7EKxH3CtMgoiDUh/iDgyewhRimZktAEuT1qwM1jwZwBHYgdeZzAcIgNIA4W5kRGKPi0dEEwG2K4QtDpgnx2PMS6EC/i5wXFKWy2iKfEKnyhdeliFlPBX+CIZX6lvh5KshOYCv3XmXy2Qh9TLcyMT4KYArF5gSAxEmJViB3ysuPCFTZjCjNZkUM2YkmsNH5ziGP5wpAAuT5WkC4OjlXYl+bmDc0X25IpYEcq8MH8zPhQeX6wZi5HFj+cC9bOFzIThnT4eeMihubC4wcGyeeOPeMLE+IUOh9E+QGx8rE4RZQTrbDHTfk5IVLeFGLXvII4xVg8MR8uSLk+ni7Kj46Xx4kXZnHCouXx4MtBBGCBQEAHEljTwBSQBQRtffV98E7eEww4QAwyAB/YK5ihEUmyHiG8xoFC8CdEfJA3PC5A1ssHBZD/OszKr/YgXdZbIBuRDZ5AnAvCQQ68l8hGCYe9JYLHkBH8wzsHVi6MNwdWaf+/54fY7wwTMhEKRjLkka42ZEkMIgYSQ4nBRBtcH/fFvfEIePWH1Rln4J5D8/huT3hC6CA8ItwgdBLuTBYUiX+KcizohPrBilyk/ZgL3BJquuEBuA9Uh8q4Dq4P7HFX6IeJ+0HPbpBlKeKWZoX+k/bfZvDD01DYkR3JKHkE2Z9s/fNIVVtVt2EVaa5/zI881rThfLOGe372z/oh+zzYhv9siS3CDmEt2BnsInYcqwd07BTWgLViJ6R4eHU9lq2uIW+xsniyoY7gH/6Gnqw0k3mONY69jl/kffn86dJ3NGBNEc0QCzIy8+lM+EXg09lCrsMourOjszMA0u+L/PX1Jkb23UB0Wr9zC/4AwOfU4ODgse9c2CkADnjA7X/0O2fNgJ8OZQAuHOVKxAVyDpdeCPAtoQZ3mh4wAmbAGs7HGbgDb+APgkAYiALxIBlMgtFnwnUuBtPALDAflIAysBysARvAZrAN7AJ7wUFQD46DM+A8uAzawQ1wD66eHvAC9IN34DOCICSEitAQPcQYsUDsEGeEgfgiQUgEEoskI6lIBiJEJMgsZAFShqxENiBbkWrkAHIUOYNcRDqQO0gX0ou8Rj6hGKqCaqGGqCU6GmWgTDQcjUcnohnoVLQQLUaXouvQKnQPWoeeQS+jN9BO9AU6gAFMGdPBTDB7jIGxsCgsBUvHxNgcrBQrx6qwWqwRPudrWCfWh33EiTgNp+P2cAWH4gk4F5+Kz8GX4BvwXXgd3oxfw7vwfvwbgUowINgRvAhswjhCBmEaoYRQTthBOEI4B/dSD+EdkUjUIVoRPeBeTCZmEWcSlxA3EvcRTxM7iN3EARKJpEeyI/mQokgcUj6phLSetId0inSV1EP6oKSsZKzkrBSslKIkVCpSKlfarXRS6arSU6XPZHWyBdmLHEXmkWeQl5G3kxvJV8g95M8UDYoVxYcST8mizKeso9RSzlHuU94oKyubKnsqxygLlOcpr1Per3xBuUv5o4qmiq0KS2WCikRlqcpOldMqd1TeUKlUS6o/NYWaT11KraaepT6kflClqTqoslV5qnNVK1TrVK+qvlQjq1moMdUmqRWqlasdUrui1qdOVrdUZ6lz1OeoV6gfVb+lPqBB03DSiNLI1ViisVvjosYzTZKmpWaQJk+zWHOb5lnNbhpGM6OxaFzaAtp22jlajxZRy0qLrZWlVaa1V6tNq19bU9tVO1F7unaF9gntTh1Mx1KHrZOjs0znoM5NnU8jDEcwR/BHLB5RO+LqiPe6I3X9dfm6pbr7dG/oftKj6wXpZeut0KvXe6CP69vqx+hP09+kf06/b6TWSO+R3JGlIw+OvGuAGtgaxBrMNNhm0GowYGhkGGIoMlxveNawz0jHyN8oy2i10UmjXmOasa+xwHi18Snj53RtOpOeQ19Hb6b3mxiYhJpITLaatJl8NrUyTTAtMt1n+sCMYsYwSzdbbdZk1m9ubD7WfJZ5jfldC7IFwyLTYq1Fi8V7SyvLJMuFlvWWz6x0rdhWhVY1VvetqdZ+1lOtq6yv2xBtGDbZNhtt2m1RWzfbTNsK2yt2qJ27ncBuo13HKMIoz1HCUVWjbtmr2DPtC+xr7LscdBwiHIoc6h1ejjYfnTJ6xeiW0d8c3RxzHLc73nPSdApzKnJqdHrtbOvMda5wvu5CdQl2mevS4PLK1c6V77rJ9bYbzW2s20K3Jrev7h7uYvda914Pc49Uj0qPWwwtRjRjCeOCJ8EzwHOu53HPj17uXvleB73+8rb3zvbe7f1sjNUY/pjtY7p9TH04Plt9On3pvqm+W3w7/Uz8OH5Vfo/8zfx5/jv8nzJtmFnMPcyXAY4B4oAjAe9ZXqzZrNOBWGBIYGlgW5BmUELQhqCHwabBGcE1wf0hbiEzQ06HEkLDQ1eE3mIbsrnsanZ/mEfY7LDmcJXwuPAN4Y8ibCPEEY1j0bFhY1eNvR9pESmMrI8CUeyoVVEPoq2ip0YfiyHGRMdUxDyJdYqdFdsSR4ubHLc77l18QPyy+HsJ1gmShKZEtcQJidWJ75MCk1YmdY4bPW72uMvJ+smC5IYUUkpiyo6UgfFB49eM75ngNqFkws2JVhOnT7w4SX9SzqQTk9UmcyYfSiWkJqXuTv3CieJUcQbS2GmVaf1cFnct9wXPn7ea18v34a/kP033SV+Z/izDJ2NVRm+mX2Z5Zp+AJdggeJUVmrU56312VPbO7MGcpJx9uUq5qblHhZrCbGHzFKMp06d0iOxEJaLOqV5T10ztF4eLd+QheRPzGvK14I98q8Ra8oukq8C3oKLgw7TEaYema0wXTm+dYTtj8YynhcGFv83EZ3JnNs0ymTV/Vtds5uytc5A5aXOa5prNLZ7bMy9k3q75lPnZ838vcixaWfR2QdKCxmLD4nnF3b+E/FJToloiLrm10Hvh5kX4IsGitsUui9cv/lbKK71U5lhWXvZlCXfJpV+dfl336+DS9KVty9yXbVpOXC5cfnOF34pdKzVWFq7sXjV2Vd1q+urS1W/XTF5zsdy1fPNaylrJ2s51Eesa1puvX77+y4bMDTcqAir2VRpULq58v5G38eom/021mw03l23+tEWw5fbWkK11VZZV5duI2wq2PdmeuL3lN8Zv1Tv0d5Tt+LpTuLNzV+yu5mqP6urdBruX1aA1kprePRP2tO8N3NtQa1+7dZ/OvrL9YL9k//MDqQduHgw/2HSIcaj2sMXhyiO0I6V1SN2Muv76zPrOhuSGjqNhR5savRuPHHM4tvO4yfGKE9onlp2knCw+OXiq8NTAadHpvjMZZ7qbJjfdOzvu7PXmmOa2c+HnLpwPPn+2hdly6oLPheMXvS4evcS4VH/Z/XJdq1vrkd/dfj/S5t5Wd8XjSkO7Z3tjx5iOk1f9rp65Fnjt/HX29cs3Im903Ey4efvWhFudt3m3n93JufPqbsHdz/fm3SfcL32g/qD8ocHDqj9s/tjX6d55oiuwq/VR3KN73dzuF4/zHn/pKX5CfVL+1Php9TPnZ8d7g3vbn49/3vNC9OJzX8mfGn9WvrR+efgv/79a+8f197wSvxp8veSN3pudb13fNg1EDzx8l/vu8/vSD3ofdn1kfGz5lPTp6edpX0hf1n21+dr4Lfzb/cHcwUERR8yR/QpgsKLp6QC83gkANRkAGjyfUcbLz3+ygsjPrDIE/hOWnxFlxR2AWvj/HtMH/25uAbB/Ozx+QX21CQBEUwGI9wSoi8twHTqryc6V0kKE54AtkV/TctPAvynyM+cPcf/cAqmqK/i5/RfSgHxwyICe4QAAAIplWElmTU0AKgAAAAgABAEaAAUAAAABAAAAPgEbAAUAAAABAAAARgEoAAMAAAABAAIAAIdpAAQAAAABAAAATgAAAAAAAACQAAAAAQAAAJAAAAABAAOShgAHAAAAEgAAAHigAgAEAAAAAQAAA16gAwAEAAAAAQAAAOwAAAAAQVNDSUkAAABTY3JlZW5zaG90GCDuYQAAAAlwSFlzAAAWJQAAFiUBSVIk8AAAAdZpVFh0WE1MOmNvbS5hZG9iZS54bXAAAAAAADx4OnhtcG1ldGEgeG1sbnM6eD0iYWRvYmU6bnM6bWV0YS8iIHg6eG1wdGs9IlhNUCBDb3JlIDYuMC4wIj4KICAgPHJkZjpSREYgeG1sbnM6cmRmPSJodHRwOi8vd3d3LnczLm9yZy8xOTk5LzAyLzIyLXJkZi1zeW50YXgtbnMjIj4KICAgICAgPHJkZjpEZXNjcmlwdGlvbiByZGY6YWJvdXQ9IiIKICAgICAgICAgICAgeG1sbnM6ZXhpZj0iaHR0cDovL25zLmFkb2JlLmNvbS9leGlmLzEuMC8iPgogICAgICAgICA8ZXhpZjpQaXhlbFlEaW1lbnNpb24+MjM2PC9leGlmOlBpeGVsWURpbWVuc2lvbj4KICAgICAgICAgPGV4aWY6UGl4ZWxYRGltZW5zaW9uPjg2MjwvZXhpZjpQaXhlbFhEaW1lbnNpb24+CiAgICAgICAgIDxleGlmOlVzZXJDb21tZW50PlNjcmVlbnNob3Q8L2V4aWY6VXNlckNvbW1lbnQ+CiAgICAgIDwvcmRmOkRlc2NyaXB0aW9uPgogICA8L3JkZjpSREY+CjwveDp4bXBtZXRhPgol/LCjAAAAHGlET1QAAAACAAAAAAAAAHYAAAAoAAAAdgAAAHYAAFoUVygA/QAAQABJREFUeAHsnQe8VcXxx1fFKDYQVBQUEAXF8hd7RwQU7NgLYostMdFoLDGJSYxdY09MYuy9gqBSREERFRvFroAVC8XeBeW/333Mce6+c+499937CjDz+bx3zj1n2/ltm9mZnV1kridnZAgYAoaAIWAIGAKGgCFgCBgChoAhUG8ILGKCV71hawkbAoaAIWAIGAKGgCFgCBgChoAhEBAwwcsagiFgCBgChoAhYAgYAoaAIWAIGAL1jIAJXvUMsCVvCBgChoAhYAgYAoaAIWAIGAKGgAle1gYMAUPAEDAEDAFDwBAwBAwBQ8AQqGcETPCqZ4AteUPAEDAEDAFDwBAwBAwBQ8AQMARM8LI2YAgYAoaAIWAIGAKGgCFgCBgChkA9I2CCVz0DbMkbAoaAIWAIGAKGgCFgCBgChoAhYIKXtQFDwBAwBAwBQ8AQMAQMAUPAEDAE6hkBE7zqGWBL3hAwBAwBQ8AQMAQMAUPAEDAEDAETvKwNGAKGgCFgCBgChoAhYAgYAoaAIVDPCJjgVc8AW/KGgCFgCBgChoAhYAgYAoaAIWAImOBlbcAQMAQMAUPAEDAEDAFDwBAwBAyBekbABK96BtiSNwQMAUPAEDAEDAFDwBAwBAwBQ8AEL2sDhoAhYAgYAoaAIWAIGAKGgCFgCNQzAiZ41TPAlrwhYAgYAoaAIWAIGAKGgCFgCBgCJnhZGzAEDAFDwBAwBAwBQ8AQMAQMAUOgnhEwwaueAbbkDQFDwBAwBAwBQ8AQMAQMAUPAEDDBy9qAIWAIGAKGgCFgCBgChoAhYAgYAvWMgAle9QywJW8IGAKGgCFgCBgChoAhYAgYAoaACV7WBgwBQ8AQMAQMAUPAEDAEDAFDwBCoZwRM8KpngC15Q8AQMAQMAUPAEDAEDAFDwBAwBEzwsjZgCBgChoAhYAgYAgsEAq+99qp77dVXw7e8/tpryTettfbabu2uXd3aa3dNntmNIWAIGAINjYAJXg2NuOVnCBgChoAhYAgYAlVF4L5BA93g+waVTBPBa4899zQBrCRSFsAQMATqAwETvOoDVUvTEDAEDAFDwBAwBOodATRcF5x3bpLPHv32DPdau0UYaPCgQU7u+X3a6X80AQwgjAwBQ6DBEJivBa9vv/3WzZw507Vv377BAGvojO7zE8Vnn3/mVl11Nde7d++Gzt7yK4KA1E2nTp1c9+7bFQlprwwBQ8AQMASqjYDWciFw9dtzr1xZ1DVersQtkCFgCBgCRRBoUMFr7OOPu+9/+CEUZ9ttt3W/+MUvihTt51eff/65e+6558KDVdu1c9hqI3Dttdee7puvv3aHHXa4++3xx/8cYQG623efvd2bb77pNt5kE3f11f9bgL5s/v8Uq5v5vw4X9C/46aef3OjRo1M/cwk//q7Stq1r6/+aN2+eGsYepiPwzttvu+eef8598MEHbsb0GX4uW9y1aNHSrdSmjdtiiy1cx44d0yPa06ohUKnwpDVl5QhtVfsAS8gQMAQWSgQaVPA68XcnuDFjxgSgL7v8crfttt1zgX7zTTe5yy67NIQ98aST3MEHD3APP/ywO+3UU8Kzdu1WdUPuvz9XWvNbIGPum26NWd003bqxktUg8P3337utttyiJBz773+AO/yII9yKK65YMuzCHGDKlMnuyiuvdCwiFqPBQ+73VgqrFgti7ypAQAtNlZoLHn7ogFASE74qqBCLaggYArkRaFDBSwtLfXfayZ1zzs922cVKLAwuYYaPeCgwB1999ZU78pdHuMmTJ7s//fnPXvu1d7EkMt997TVmjz76qBv1yMPu+ONPcB2a2EqlfPv8pvFipf2pp54KuG662eaub9++mXUwv76YX+umFN4fffSRX9gY6Z599ll36aWXuUUXXbRUFHvfRBHIK3hR/FatWrk77rzLtW7dukl+TWO3y7feessdcsiAYGUhALHo17JlC/fhhx+6Tz75RB47E7wSKOrlhj1dCF+VCl0UTgtx1994c72U1xI1BAwBQ0AQaFDB67vvvnNbb7Wl5O0eH/uEW2qppZLfaTcIVgfsv194tfXWW7srrvxnQbAfvOliXpPFgojzfjzyyCPu1FNODr+uve46163bhmnBGu3Z/Mrcf/zxx27HHWr2pB133G/cEb/8ZaNhWF8Zz691UwqPiy68wN1xxx0h2LPPPW+CVynAmvB7LXj16dPHnXLqaaG0P/74YzDXnjRpkvvXv/6ZCBNbbrmV++e//tUkv6ix2+Xuu+3m3n9/WsBmt913d0cffUww0xSwmN9GjxrlbrzxBnfxJZc4hDKj6iMgglIeDRXmiFCpvV9itpgnzep/kaVoCBgCCxMCDSp4Aew5Z5/tBg68N2B87nnnO5iBYvTPf17prvcCEXTe+ee7HXcsHr5YWmnvTPBKQ6XyZyZ4VY5hY6XQ2AxuY333gpivFrz23Gsv9+c/n1HrM6dNm+b22H235PljYx53yyyzTPK7qdw0Zrt87733XL89dg9QbOP3J1922eVukUUWaSrQLFTlEG1XHu2UeDtEM1aKxOQwT7ql0rL3hoAhYAhkIdDggtf48ePdUUfWaD+6d+/uLvUTWBZhrtZnxx0SE44nnnzKLbnkklnB6/TcBK86wVYykgleJSFqsgEak8FtsqDMpwXLI3jxaeeff567+667wlc2Rc0/BWvMdjl06IPuDG/SDp32hz+4/fbbP9zbv4ZFQLRdnMWVR5gqp3Sm9SoHLQtrCBgCdUWgwQWvWJgaNfpR7w2qRWr5tZC2zz77uNP/+KckHN4ML7/8svC7+3Y9HGaIQvrd9tv3DB4B77zzDjfKm4HMmjnL7brrrq5Zs2Zu+vSP3OQpU9ykiRND1M29N6rV5m2IXnGlldyRRx4Vnv/nP/92n3r7/c5d1nKUI43e9l6ubr/t1vDqoIP619orNnfuXPfMM8+4YcOGunfffde95/+gNdZY023iPRYePGBAqlBZV3O2GIMtttzSPfbYY+6Zp8eFvVdffvml69q1q+ux/fZuT++Ct9jqLWndc8897oUXXnCTJk10iy++uFtnnXVdtw27OTbl81sIQZY8PvOeKB8eOTI8xt36RhttJEHc8Sf8zl1xhRe4PSard1rDHXDAAck7uQGvf/zjIjdn9my33nrrO0x7YqJ9jBg+LDw+8qijazkGGOf3mD355JPujTfecC+/8rJb1q/i881d1lor7AnMciRw9X//6z7+eJbrtMYa4fvYA3jP3XeHeuPoAjHFKlU3N914Y2KatMaaa5bNrOG5E5f1r/iyv/TSS27ZZZd1G2+8iWPFfbvttnNog7/84gvX1ddFv379YnjCgsXg++7z9TbJvfPOO27mrFluZe91jTbX/+CD3frrr5/EgUG/5OJ/hN+Pe8cB06dPD/ekS1+B2KsXH2lAfx46dKj3Ovqse8GbrZEH6Xb1jFH//v1dK7Vf6JZbbg7tfrHFmrmTTzkl1YQR5h8HBssss2yqp1IwueZ/V4fy7Ninr8dj43DPv6lTp/oDVO9zU6ZOcW/7/Thf+n2gq/s9m13XWccdccQvXRv/7UL3DxniMX0x/OzvnfUUO5KCup88+Y0Q9uRTTi1o75Je1hWTvgcffMC9+MKLIY2p3kMpdQDjuO566/l2uFeqqXTcf9njGY9hRx9zTFa2yfO8gtc11/zP/fuqq0I8zLn1eJok5m++8O1tkDffok+98frr7iPfTtbw/Xst36fS2ofEHebbyMSJE1wzP1ac4jFMo9m+r9PnGRe23mabcERDQ7TLtLLEzx71niF///uTwmPG6hNPrLmPw5X6XU5/kbRGjBjhxnsPitJvaOfXX3et35v0mvdGuZTbye+Xfu+9mvnkkEMPLWriKGNGWv9CqzdkyGD38ssvuxdffDG0U8ZL5te431O2arVR+c48V9F25d3bhaAG0d/yEFovMzfMg5SFMQQMgboi0OCCFwX997+v8sxTjWv0M/7y11SmkXDnnXtOYPi5v+66690G3bpxG4iNzDv07hXuf/WrX7sjj6oRkngQv8Md/W3zhCLe77DDjt4N8PthguF3GmlPieRDmr169XIXXlTDnMZx8HJ1wgnHh8dX/fs/bvPNN0+CMNnuv9++wS188jC6Ib+bb7mllhBairmPkkl+xhhQhv/+9z/Je33Dd11w4UWpwhcM1sm//30iQOh43K+77rru/AsuTPY6XHnlFe6G66+PgxX8xkHKb39zXHCMstTSS3vnJo95pmKxgjCve6bioIMODM90XehAfz/zTDd48H3h0ZNPjXNLLLFEuKe+L/YM3IMPPqiDF9yT71992+u9ww4Fz/mhMT/wwAPD90sg4j3++NjwU4eLXf3/7+qrHQI7hNOC666/wa222mrhd55/CJV47aQe0+gkXyf/+c9/AvNDez7/ggsKgsGs/fH0PxQ8i3+cfPIp7sCDDgqPcTLTfdtt4iAFv/fdbz/3hz+cnjz79NNP3d/+9tdMD29897nnnec23XSzEOdSv+8F4Qu67bbbw7EQ4ce8fwgpPXpsl+w3GjZ8hFvJL4Book7/ckaN5kGPCVobosPrex0ewYuyQyyw/OrXv9ZBk3vOCtxm663Cb8Yf0shLU/2izpln/q3oOMOixNlnn1MLi7j/po1hcZ2nlSuv4HXaaacmCyX3DR6S2lZZgDjn7LMy2yT5s9D1xz/9KbR5XR6wBnPo+fET9KvkHqFue1//EOM543pDtMukAEVu2NvFHi+humgFy+0vktfF//hHMn9RN2LyKO9/7dvuVfOEZtqxLBjKe7lyLAljFsRC1t/+dqa8cg89NMKd7jV5WUR4+r62OKlWG83KM+25CF55zQHLMTUkPwSv+tCmpX2LPTMEDIGFE4FGEbz0BJDlrQ+nGb169QxMGIz3YD9pa61MPOhnCV4wfc8++4yDYd56q63djJkzwup2u7bt3Pte+Jr23jQ3YcL4UPtsLF9hxRXCfetWrZMV92oIXptuUrMyD/PGKn2n1Tu5r7/5xmmtyAGeyY9Xg4sx98WarMZHwoHj3n7ibdNmZfey16BoYfTiSy71TG8PCRquaOb27LdH8myXXXYJTPTsObPd8OHD3fPzzlbbcMON3DXXXhvCoeUa+8RY992337mRIx8Kzzp37uzW9iunQied9Ht3p3feIILJjf64ALRamvQKPM+H+OMCKL8QGjGcd/CdMHv/uPji8GrOnDnuwAP2T4RctBy77bZ7cO0M3s8+87QX9B6VZLzW9IqgQUoe+BvBHKb4s88+C3mgAUA4nDr1zeToAgkXt2G0NphuQbS7m2++paxzfagbvKcJkTdts4X3nsY7cXwh79MEr+t8feA0gfx39MIl2trll18+tHUxKSP+0GHDQnvAMYCUGc0VGjJIaxo32WTToC3mOf0TpzcSjna98047u+beWQ79TZhs8n/ggQfDgsJz3kviMcccTXT3u9+d6AYccki4l39aw82zv591tqPNaULoQvgiXS2wH+u1P+RLG9m2+7auc+cuQVM33H/fU089GZKgHd7qBT7q8RvfFrbdpkZLTht54MGhqRo4LcCmlUeXTd/H+6bQAvbosb0fX1b05z5Nd2iGZTWeeCMeGulWWKFm7OG37r9ZY5hmnImTRnkEL7Qbhx1aUxcdOnRwd99zb62FkJgxp81ttPFGgRFnnEDTSJkhFmNuuPGmAjzrKng1RLtMwy3tmbQ9eXfssb8KlgrNmzeXR5nXuvQXSUwLXlhlPD1uXMAYd/V4HmUMGzDg4BCc9s9YmUZ6wVMvQmgzSuJxLiZWATP9XHnbrbcm2u9jjjnWaS1rtdpoWlmznpUrSJUb3gSvLOTtuSFgCFQNAc/ANgoddOCBczfasFv4826Ca5Vh9OjRyfv//e/qWu/9HqKf319d+F6/Iw8vPMz1plO10uCBd3GfpDNhwvjUML179QxhTjn596nvefj4mDFJOuPGjSsI51fy5+7Ut89c7/Gq4Dk//Er23G222TqJ6zVTBWH22Xuv8O6oo44seF7qR4zBr3517Fzvgr8g2tAHH0zyTUv/+ON/m7x/5JGHC+LyTWf+7W/J+7Fjxxa8nzVrVvLu2muuKXjHD286l7z3Qlat97p9UIeDBg0qCDNlypQk/pDBg5N3/sy35PnvTjg+4Ju8nHfzwAMPJGF223XXuZ4pKggimEv7fP755wveyw8Jp7EbMWJ4kjb16jWGEjz3lbqSvG+99ZZa8TR2hDvt1FNrhfGC19y/n/m3ubSDmKgPSf/222+PX8+98ILzk/fUcxppnC+55OK5cTiviUzSuOLyy0MS4Cxt/Zijj66V7OWXXZbEoXx//tOfCsKQh8T/61//UvCOur7xhhvmekGj4Dlxjvv1r5N0X3v11eT9ueeekzyfOHFi8lzfeM1sCEO+XljTr4re677jTVfn+gWBgvBgccH5P+NMXWmK+2+xMUzHi++94JJ841ln/T15DS7+8N+51L9gCuZPPflkEkZuvFnyXBkDCeMXLuRVcqW/H374YUle3rwyeccN9SVtruCF+sFYKGGuuupf6k3NbX21y1oZZTwAB/2NlBVcvAlorXYXJ1GX/iJp/OOiixJcyNNrjeVVctX4vvrqK8lzuaG+pQ5pSzLP6LqlHXgTXYkSrl4LOVfGOfL+2NezULXaqKSX53rYIQfPPd/327xE2HLDk4eRIWAIGAL1hYA3p28cYrKSSdavqtUqxKmnnpK8nzbtvVrv9aDvzboK3ut35JHFVBGpIQQv8okZL54JXXLxxcm36omN9zLpaeZe4hW7xhi8//77tYIzGSN4gBGTrqZnn3kmKZNfcdWvknvKKnUYM8KlBC/NCMDMaPJn4iTpyvfTHjTp9uP3/YRXMAlSHr6H31mkGRWvvSsIJnmSlveoWfBO/5BwUjcwrZI/V79XQgfPdY/wL2kgTGSR11ol4dIEr2LtzWvxkrgXXnhBrSxKMbgaZwRkvzenVhowdiI8w/AJ/fGPpyd5ezMyeRyu0hYFV+qQdiL0+uuvJ3FHjhwpj8O12PciKAimegFBC7B8c0wzZsxI4qW9j8PLb913EKKzCNzkmykf7V4o7r/FxjCJk3bVgpdgkHV97LHaAhVpIjhKnGL9wWs/k3B8lybd3/RzfV+p4FVJu9TlKHZPnV31r38l3ym4sLAWt0lJp9JyacErqz15bXJSJlnokPy5Pvfcc8n7O+74ebFF123awiBxx4x5LImrF7mq1UbJIy8hFJUjGNVF8CpHUMtbbgtnCBgChoAg0GiCl2bMYdA06Qn4l0ccoV8l93rQLyZ4+b1VSZy0m4YSvNLy5htefPGFuX/5yxnJxKZX5IkjTKgw92nppD3T+LD6nkWaIdIr+tdff11SJrRLWQS+MB+x8KTrN03jRXrnnnN2kgd1LnTPPXeH56TN6i7pw4Rr5hqhhOcDDu4v0QKWwghR/mI0ZfLkJO94dV0wJy2ElCyScNTNSy++mKRHvLoyymht5BuyNLCUR9dvmuCVVma0QaxoP/HEE0kevz/ppFpBSwlefJuUkbrKIr2g4PdKhWAIuRJXa0m1BpPnEkav3ktb4B3MbClCw4vGUWsbNNNJfKlD2lcsQN5888/a07hfFsvbmw8n5S/VDu6+u6at801aU67rt9QYVqwseQQvFjU+L9LOy9H60Ral7vR4oseZrPLqcT/uk8Spz3aZVaas594RxVy9iCDfjBWAtHWJW0l/IQ0teGUJxyxQIPxRDhY69IIFaaDtlDLqMU20wfEiB3GE9EKNNw+XxwVjUCVtNEkwxw1CUX0KXqRtgleOirAghoAhUGcEGmWPl9hJ4owCpxTQwIGDEk+AeuM7+xj0PhOJq+3LiznX2NVviD7zzL9LtFrXPO7kK93jRaY4t3jm6afd6NGjvDe1lwv2d+hC3XrbbQUemLL2Eek4afcaHzxdneA9CaYR+4DYDwSNHPlw4oVO78lg30fs/ELSYr8exJ4bcTrBb884ljxAWTsk0XvMfnPccWFfzq/9lX0x++1b40mSfSPslWG/xJZb1Dgv+c1vfusOP+IIsvTe9X52+Rw7OAkB1D8vxLnNN9s0PIn3SAnmOIcY+fAjKlbhrYTj2yG8fEH/8V4RxaFEeFDGP+1QZuwTT3qvZdn7R7b1zjDIMy6/ZOc1Nn4f1Gjf7p4JnhHFU6G859rD7+sDe03aUUXaAcq6f/LteOlLI2kbvJP+7Zlr13P7HiF4//4HO5yEQDf6Q2f9Sn3A7ap//9t7bewevu34E05whx56WAgj7YJ9LlddVeO4JLyY9w+HLOwvfPaZZ4MXS6kPHUY7FOG53o/3r39d5fD+KST1y56lm/w+vbx01t/PdPf5PU9QqSMwvHDtjpx3uDheW8Vrqu6/pcawYuXSe7z4jh39uYnsm3r1lVd823g0iXrBBRemOpohwM479Q37fOh79MFidO211zivEQpB7rrrboc3T0iPJ+U41wiR5/2rz3ap8ynnHudD//QOhfxiRhItPuerkv5ConqPV5bjE8LpfbHsuWXvLUR9b71VTbtmzyR7FYVkbuM3e1rTyAtxyV7OnXfexZ3lz+KEqtVG0/LMeiYu3+vDuUZ9uqrP+h57bggYAgsfAo0qeOkN2zDZv/zlkaEGZKM8P7IO89SDfjHBq5jHMtJvCMHrEy+EnHTSicFFL3nGBPMqTGJ9CF4xPjp/zShpwYvN9my6L4c0Q5VH8NIe43BLf+pppznc3PfwTDd0+x13eicJnRMnGuKxSzOrhOnSpUsIj9dGXMFDwuiHHxn/hOmIGWthuEsxmhJOJ591SK0OU+z+17/+Vdg8HwuyaXGKCV54e8TrYxrhTEKEsLoIXnqTflr6ac9uvuVWfwTBOuHV0UcfFRyzINAPHFQjoBzinQPgxlrOSBJGXRyXaOZRwkg+MIYwp7hbTyMEaMYLKBa8vvCC4PbzBEHt6U171fzLX//q9tijX1rSqc+OOOLwcERFnjrUB/Medvjh7re/PT6kqce3UmNYaiHmPdSCV9w2OW7huON+9uZ4r1/86ujd72vS8TXTrcPoey1kaLf0Up+E1eOEjuu1mLW8Gur3pQSvStulzqvce+2Ehbh/8md+7bXX3iGZSsulBa9iizHenNx7Xtw15Kk9kOLwCK+VUJZAFl7m+KfP3qxWG82RbRJEBK+8Lt/Lca4haed1VZ8Uym4MAUPAECgDgUYVvDTjLUwYZ2vt7M8lgeLVOf1detCPBYti73Qa3JcjeGnveXE6nJF10ok1WqVY2yKMJnFgenfaeWfvuru7W82fCYWnOby0/fUvZ4Qkm4rgdfxvf5Os4uLyvxThZrhv375JsDyCF4F/7wVSVt7BZeiw4c6bfgY36vx+cOiw4MnyQu8qHaZa3HkjXCFkwVA/5LV04u1StCaki4YCgaoYbbzRhuF1LHyIQCVMf1YaEg4GGxLhuRzvd3HaeZl2NKjiKTPWeGkvdaQPs9Tbe6Fbz+OxStu24dwoETrjbyd8KQYXT5xyht5B/sw60WoQN40WWcS5nj17hXPIeH+71+qG85r8/f3e4yHnwPXts2OIOuT+B7xnwnbBtbkwi2hSOYeNBRkoXvXX5aEu8OJIX13TC+0rei+Cfu+U22P3GlfgseBFetpbnWioLr3Uu76/ucb1PflLHRO+FIlmjnBpGkMdXwt4umzljGE6vfheC06x4EVYNHNo6CD61zXXXFvgjRChdrNNNwnv0eRc7j3oFSM8btJ+ID2W5RG8tDZU3MnrvOq7Xeq86nKvBRy8kMp5f7p91qW/aMHraa/NlXP10sooi5a011GjRoe+deLvTnBjxoxxzLEI1zJe6jGEsfQ4bz1QijjnknERqlYbLZVn/B7Pg1AerVc5glc56cZlst+GgCFgCORGoM5GilWKiDcvsT1nH4XeV6H3PMTZ6T0QxfZ4xe/idDyjn+Q/IcOroWyA1/uJ4nS0swddbvaYyPd5wayW7T3p4IFOwug9LbyTPSiV7PEqhgEeBSVv7dhD76cQ5xWUJy/l2eNFWtr7HZvzz/jzn0J5LvGe8oS0x0j2gVAPlBmvcJpGK0+YscMMHY57zzQk333FFTVe9yRMXsx1uPHjn0/So2wjH3pIkivrqvfC8K1ZpB2QxHu89N4T9p7FxF4mqXPaZEy67uO9IoTVfSbLoUCcpv6tnTBQ//fdNyiUR+8TYc+RlJE9X/7g1/Abj2wxsT+FsOxxScNs4oQJSVppjny04wG+B3wkTfYhlkueUU7yS/PYqtPDoYH+TnlXbHyTMHmueo+X9moocXGCor1oxt5DCSftPHaYIWnoq/527UX1vPPOTb4zdqoi8bXzlLrs8aq0XUo56nqlr0i74SpUabn0Hq94H6LkIddhw4YlONNvtAOktLZPf6L9pfUrSTPrWq02mpV+1vNBA+8N+7y4liLC5A3H/q48YUvlae8NAUPAECiGQKM515BCPfPM08lEgbco7QlNO1OQ8HItNugXeyfx5aonRbyRpZEwJkymWWXSzK4WvHT6WcKAOIpgAmwqghdupoUh1J6s0vBJe6YFLzxnZZH2HAdjIIyLduH+tXeSIGUZNHBgco+TCE1+T1HyrpSgqgXl+++/XyeTMJql0hCGVMKx8V3KyRVBsFzSgnAx3LVThljwknJlMcqvvPJKUs5SgpfXmNT6BBZI5DtxDFMXEoaPskv7j4+NOHyee3KYeRkX/AHdBdlpATpLSMIlv5Q3jfmEYZbFFZyNaEG/Lp4pB957b5JfsbbPh3BEhZQNhw1C5YxhEiftWkrwIo7uN/Q/vQDDez224T0vi3AqIS7LtSdLwuMNUb4z64gFjVspwau+2mXWt+V5jhAr45cWZCrtL+UIXjg0EZzpm3qc8wc41/oM+r+Ej13J1wocPahWG42SzfUTIYm/eL7MFTkKRBqSXvTKfhoChoAhUHUEGl3wgumRyVq8MjERxAxW/OXFBv1i7+J0tAtwzndKo7PPOiuZnNI0GTBnMnlx1YIX7qvlXayhIS/teppw8UQiTLQw92nlS3uWFwPN6GuGyx+KmpQbZgIGN40QRDkPLCZWteW78fRVjESDJe2A/GIBV7xv6TYSew+jLQmzTt5Z9cl3Sl5cEew05cU8LRzCknw311g41Pmk3b/wwgtJ/CwNDsKqMHjkEQteItTwLta4gBFtScqYJniJdokwaUc5sOqu80BjlEUsrKSdoUf/Jn39HbHnQPGsqesc7ZUmvaJPmfg+TbRbnUea4EV47U1SvPhpDZxOs9Q9ZdJ5Tp06NTWK1rTF9ZC3/6YmrB7mEbwIjgtyaRNonTUxnsk7MOHspzRCcJZwMc5aE5M2DqIdkz5JGmmCV0O0y7Tv4hmaQLxqxmf+6fD6XES9CFBpfylH8KI85A2GtEE5Ty4+E0/KrcvMGBuPuxIOTXLsUbFabVTyKOeKZqpawpJ4Sozn3nLKY2ENAUPAEMiLQKMLXhRUmDCZtLkWc2FOnGKDfrF3xNWkV3thKhCEYGy18KS1ckxmmCN941cWYRY4MFczWZRdx2UVUX8XGhvKhymV1t5ImHjwT2Pudfmz7vNikCV4ke4l3txPygVThNBJujC306ZNCzhI+dLKoXFB2wcTjPlLvFqtTS3JL01Qww24lIVrmht0yqBNOwmHtoQ6hqGg7KNGPVLA4KUJ0vJNpYTdrHDafTllyNKkpmHGM60FQRNDfIRMmB9M0zSDSvqx4AWTxXP+0CYhrMAwTp78RoFZGe9jhp/8teYBV+P0xbd8O0ZTJhRr9xCSOCuOtoHgQZlFk5Vm7qjN/ygHwhUaA01aU0AY2lMaY6jbGQIEZQUv+qEW2kgjFggkP615JRx/xVzlS7ysK3ElHa5oKDEPBR9w0ibVvKc/acrbf3WctPu8gheLD7pd6TGMdGlj8j1gilYQN+MIFbQPbTJOv4hN4rTpKOlg/sx4QLvE3br0JckjTfBqiHaZhiHPRGsKRrQxxjHGdv5o6+d6N+dSdq4xfpX0l3IFL714I2XKWhyhPYo2mbAsgk2YMD4sRlE31C1aM/pYfCxJtdpoFualnmvhK543S8XlPXFEeDMTwzyIWRhDwBCoBgKN6lxDNqJNmTLZ7b/ffvIzuFNnY3Yx8pO2w0EAVIlzDTYYDzj44Fru3du1W9UNuf/+pAiyaTl5EN30966x/eQcnsbONf54+h8cXq/SiE3QO3tnG/fcfXd4rTek80AcOJRy9BCnXQwfHfZa5f5ZezUkDF7Gfuc3Zk+aOFFHSb1P81SGe3AcXsQ0fMRDwemBPMcl84EH7C8/3SWXXubdiW+X/Obm7bffdnvvtWfyLOuYAQIU8+iXJOBvjvbOGo455lj9KNznxbxYuCuvuMLdcMP1SdrXXXd9cF6QPChy8/7709xRRx6ZeB5MC3r66X90l19xeao7+cmTJ7sD9v+5P8Xx8d73xNixYXN8mnMNbybq+uy4QxzNaU9pvDz//POCO/ZaAaMHN910s1t3vfUKnnqGz/XosV3ikOTggwe4E086qSAMfZNy0JahLLfqAwfe686Z5+K6IIF5Pw477PCkLrQDizjsyd61Pcc9CD362JjEIYg8y3ul7BdccH7Sr7Pi0f/P+vtZrsf22xcEydt/CyKl/CjlXENH0V5mGf/uvucet8QSS4Qgnsn2Tm9OdRO8+/tihEvyCy68KNU1uV/kcf++6qrM6Hh1vOH6mj6T5lyjIdplVuG005CsMPL8jDP+4vrt+fNYJc/r2l/84pG77bZbQzKlnGsQyDMGYaz0eylDHOpy8JAhiVON8FD9w8HLb35zXNLP1KuC29i5SrXaaEEmZf4QT4REy+vpkLB1jUdcI0PAEDAEKkGgSQhefACMIgwj9Ic/nB6YvPAj4592PazPciK4fhcLZWnJeY1I8KTHVWjttbsGr1zy268cu8suu7QWowmj8bsTT3J+ud6flVXjCvq//73abbJpzRlRxPeaMefNZGrFJY8/nH6682Z9wbMaYe+4867gQp17qP9BBwWhMOvsoppQtf/nxcBrZ8J3kcIj3gtWy5YtCxKDQUaAuOGGGxImWQeAGR4wYIBbc83O+nG4xzU8HtPwHKkpFvBgFHbcoXcy8We5TJbzhEgrFt50+tyDKYzO0+PGxa+Ct0Nc16+33vq13vFAMC8l7BYLxzedfdbfk/OcSHfwkPvdqt4rWB6i/s495xx/ttpDBcFpbwMOOcTttNPObovNNwvvDvKeBX9/8skF4XAVfu655zqEOCGY/N123S2ExYsgjFOvXr3chRf9Q4IkVzxNnnHGnwvqHAHmt8fXtHEJSDjvjCNVSOQcoSP8GVVb+rOxxJOaxOOqPd1d/b9r3MYbb6xfh/uzzz7Lec1wuIeh7927d60wYH3nnXc6zqQTz5IEwjPmUUcd7TbzOO3u2ykUu6IPD+f9Q+hC+IL69evn8njznBc180I9XOi9/AkTrAOC/SmnnlawCCHv8/ZfCZ919ZqnpJ3IkQ1ZYcHxmGOODq7+CcMZaywoCSFMes2z8/u1kr4q72hb++27nzvm2GOD10x5rq+kj5BMu9aER73+fvFrr732TtzJH3vsr9xRRx+tg4X7hmiXtTL1Dzh+4brrrnWj/FhGv0mjvt4b79577+M22qjm/Ky0MHXpL3oRJ4/gRb56XI/rMa1cHKtw0UUXhbMQ4/fUbf/+/UP9tmrdOnldrTaaJFjHGzl/S6Izr+4xT/DlHiKM16CH+8H3DQpX/pUjrCWR7MYQMAQMgQoQaDKCVwXfUJWoCBgffPCB++ijD13btu38X9tUZhEB7B2vffEbld1aa68d3MHnLQCT27vvveu+/vob17VrV7fccsvljdokwnlzLOfNuII745VXbuMZxpUymSxdYOJ5Uyr/vcu61VfvlHkYs45TrXtvmuY4K2nWrJmhrtq375CrzNXKv9J0vLmPe8svCHzm205X396Wa9EiJKnPf0KIhKmOiTbN2T4f+L/WK6zg1lhjjQJX4XH4+DdtnXxgsBD4OPogiwhDOb2Jn2uz8squzUorleWCPSvdcp5LeWlvlHeVVVYpJ3pyiDORbph3WHdZCRQJDC5obREMwYfxZdFFFy0So2m/8maGYRyklKuutpprrRjyUiWnXU7z7ep9P96u5uPyVw5JPTdGu0R49F5e3Ye+7CwsLb3M0m6FFVYMwjNHauSlptBf0soqdTPNjxnMTyxerODHjvmhrSJcDR40qJb1SvydCFtQvz33il/Zb0PAEDAE6h0BE7zqHWLLwBCoPgKc/cb5U9Dll1/hMAMyqjsCMJyiBURou/uee+uemMU0BAyBRkNAtFuYUAqxSAqt7Rc8RQsm7+xqCBgChkBDImCCV0OibXkZAlVAgBX/3XbdJTF5GvHQyLAqXYWkF9oktCCbtUdnoQXHPtwQMAQMAUPAEDAEqoKACV5VgdESMQSqhwDOWNZbf323q9+PFZujYurpD8JNHJ5k7YWpXmkW/JQwxzzAO3fBDJD9Rg8OHTZfmaMu+DVkX2gIGAKGgCFgCCwYCJjgtWDUo33FAoSAOO3gk9b3AlinTmu4OXNmhz1C/sy45EvxVnaX94ZZzt6SJPJCfjN1yhR38SUXu8UXX9yNffzxBI2LL7nUe1vskfy2G0PAEDAEDAFDwBAwBKqFgAle1ULS0jEEqoRA7NY8LdlDDj00eOxbaqml0l7bsxIIIMAeMuBnj30Ez+P9rUSy9toQMAQMAUPAEDAEDIFMBEzwyoTGXhgCjYfA1KlT3VNPPemmfzTdzZg5I3iS7Niho2vfoUPwiNm+ffvGK9wCkPP06R+5f175z+CFsUPHDq5Pn76uS5cuC8CX2ScYAoaAIWAIGAKGQFNFwASvplozVi5DwBAwBAwBQ8AQMAQMAUPAEFhgEDDBa4GpSvsQQ8AQMAQMAUPAEDAEDAFDwBBoqgiY4NVUa8bKZQgYAoaAIWAIGAKGgCFgCBgCCwwCJngtMFVpH2IIGAKGgCFgCBgChoAhYAgYAk0VARO8mmrNWLkMAUPAEDAEDAFDwBAwBAwBQ2CBQcAErwWmKu1DDAFDwBAwBAwBQ8AQMAQMAUOgqSJggldTrRkrlyFgCBgChoAhYAgYAoaAIWAILDAImOC1wFSlfYghYAgYAoaAIWAIGAKGgCFgCDRVBOYbwWvu3Lnug/ffdxx8+sknn7gvvvjcffftd272nNkB28WbLe6WbL6kW265Fq5Vq1auTZuVXdt27dwiiyzSVLG3chkChoAhYAgYAoaAIWAIGAKGwEKCQJMXvGbNmukmv/GGe+vNN92ceUJW3rpp5oWx1Tt1cp27dHErrLBi3mgWzhAwBAwBQ8AQMAQMAUPAEDAEDIGqItBkBa/PPvvUTZo40b3z9lvJByM8rdK2bRCiWrRs4ZZaaimHcAUhlH3zzTfu888+dwhrH37wQbhK5A4dV3cbdOvmWrZcXh7Z1RAwBAwBQ8AQMAQMAUPAEDAEDIEGQaBJCl4vvjDJTRj/fABgkUUWdV3XWcet2blz2UITwtuUyZPdq6+84ubO/Smkt+FGG7v1/2+DBgHXMjEEDAFDwBAwBAwBQ8AQMAQMAUMABJqU4PXjjz+6sY8/5rVcb4fa6bLWWm6DDTZ0zb1mqxL61mvCJk2a4N54/fWQTIeOHd02227nFltssUqStbiGgCFgCBgChoAhYAgYAoaAIWAI5EKgyQhe3337rRs16mE3a+ZMt8SSS7ott9ratW/fIddH5A307rvvuKeefMJ9/913boUVV3Q9e/b2Djma541u4QwBQ8AQMAQMAUPAEDAEDAFDwBCoEwJNQvBC0zVi+NAgdLVq1dp177G99064XJ0+qFSkL774wo15dLT3jPhxEL769N3ZNF+lQLP3hoAhYAgYAoaAIWAIGAKGgCFQEQJNQvB67NFRwbwQoav3jn3ckl7jVZ/0ndd4PfzQiCB8YXa4XY+e9ZmdpW0IGAKGgCFgCBgChoAhYAgYAgs5Ao0ueIkjDcwLd9p513rTdMX1jOZr2NAHgtmhOdyI0bHfhoAhYAgYAoaAIWAIGAKGgCFQTQQaVfDC6+CQ+waF7+nRs1fV93SVAoo9X4+OeiQE273fnmV7TSyVvr137ocffnDPPj0uQNFpjTXDcQDl4kIaHJjdlM9i+9IL8v60brfsssuW+3nzRXhdj2iJV12t/XxR7oWhkLpu6trHFgac7BsNAUPAEDAEDIHGRqBRBa/H/F4rzunCe+EWW27dKFiMe+qJ4O2Qc76283vLqk1fffVl4qVx9U5rhLPHSuUBJl999ZX7xS9+4Q9/XqtU8Cb9nu8YeM9doYwdV1/ddd+uPIzRTA4edK8/DmCua7fqqq5X7x2b3Pe+/tqr7ulxT4Vybb7Flm6ttbs2uTJWWqBK67HS/C1+NgKV1M0br7/mZs+e7dq2W9Utv7ydcZiNsr1pSghM/+ijgnM6pWyL+MWvpZde2rVcvlWwnuG3UT4E5syZ4ya/8br75OOP3RdffuHmzJ7jHZ0t4bd+NPeLniu4Ndbs7JZYYol8iVkoQ8AQyESg0QQvDjke+sD9XkmwqNtn3/0qdhmf+YUlXuBq/p677wrnfO28625V16pMnTLZPTH28VCKbhtu5P5vg24lSuSCoAIzxaQx4NDDS4ZvygEqYQr5rpdfetE9/9yz4RNx/99/wKFN7nNHDBvqpk//KJSrTZuVXZ+ddm5yZay0QJXWY6X5W/xsBCqpm1tuusH99NNPfrFgbbf5FltlZ2JvDIEmhMBjo/2+8HfeLlqiZs2auW4bbhzOATUBLBsqFjWffGKse+vNqWEsyArZuvUKbpfdds96bc8NAUMgJwKNJnjh1p3VlXXWXc9tsulmOYtbP8Gee/YZ98rLLwXtEm7sq0kLsuA11zNskye/EQ6pXnW11VKFykqYQuoBRyiD7r07rMo3hbaS1jbee+9dByMAbbd9T7daHc3w3n9/mnv9tdccuPbaoWlp9iqtxzTcGuoZJs2vvvKy+/CDD9yee+8bFjQaKu+GyKeSullYBC/GkddefcW99dab/gzH7m7FFVdqiKqxPOoJgTyCl2RdF0sLiVvf1zxzaH2XQS8ckhdCKkLrXH8/x2vDhUzwEiTsaghUhkCjCF6ssNx+6y1uzpzZrinsrZK9Zs2aLe4O7H9wVRmzBVnw+vLLL4NQRBPEjHLb7tvVao2VMIU6McwgmAyaKqE1gBZddNE6F/G2W27yfWJOMEfdZ78D6pxOfUSsVj3WR9lKpfnQ8GHuo48+DMEGHHKYW6SCOiqVV2O8r6RuFhbBS2vOMSnHtNxo/kVAC149e+/glm9ZYyaLgP3pp5+4F198wYV9t/M+sanWeZ45tD5rSZybkQcCF4vgXdZau+CInZkzZrjxzz8XzP377rxLfRbH0jYEFgoEGkXwen/aNPfIww8Fsz7M+5oCYfaI+SN7iNhLVC0ywauyPV7Vqof5IR0TvOqnlkzwysbVBK9sbOxN00VAC1677bFn6v5ErcnBIqNnrx2a3Ac1tuD14P1D3Mcfzwq4bN+zt1utvTlNanKNxAq0wCHQKIIXqycv+RWp9f9vA4cr96ZAE8Y/71j9WW/9/3MbbbxJ1YpkgpcJXnkbkwleeZEqL5wJXtl4meCVjY29aboI5BG88IR738B7w0cstdRSrqlZEVCwxha8pP8vCPvJm25rtZIZAoUINIrg9fDIh9wHfj9LU1phee/dd93oUQ8H7169q7i/pj4Er08++cRN8MIrGjpcSTNo4sa89QorurW7dk11EIJ556SJExzaxs8//8z9+OOPrnnz5m75Vq38pvot3TLL5HeDjtkOrvh/+P57n9bnoUU1W3zxglVHNId4ZUwzg8IL4Dtvvx1W2igHB2a3W3W1UI7YVO97n8eoR0aGPNbw7ugxg4jpPV+WFyZNCi7nMdVbzJsktliuhVtxpZXCvrNSB3J/7R2ZjBnzaEi2VcAj28kA7eSll14IYdlz1qFDR8ferBcmTQzPNttsC18PK4R7/iHMT5v2nlvUO5HZse9ODm9czzz9VMCFb8W0g31yECYdEPW5woorhnv+beg3iK+8yiruu2+/daNH1xx/sJbHAdfhafSq38vytt/LAvXpu3Mt80e82LHw8a7fnP6tT5PflAXmhDQ36LZhrWTT6rFWoIwHGh8cONBWwYUx4LPPPgvfu8wyy4SFmKxvkqQ/njUrYM0qLWWnrpfz6WHquu5660uw8E0PjxwRfhNHTEE5kmCRRWs8nbVv3yGYr77pN5VDm2++pWvVunW41//ow2/4/ahQ9+493NK+rDGNfGh4MBNl71C8Z5W8J00c7z768KPQRumzlHtZ3+dWarOS23jjTR39Jybd9jt37hK+kbZDG6TOWMXn8PdSdUM6Yx4bHcpHHp07r+XW7Nw5ZCeMV5pzDcrN3jg8H4I1fZU+vbz3GNdm5ZVT20n8DWm/Zfz43Nc930G7W3GlNmER7jNvJvaSH1+gbbbdrtbxDOW23cfHPObx+TKYnWGGBpGf1OHSSy/jPa32CM/1P9rElDfecIy1s2f/EL67RcuWoY22a/ezRQRj8LPPPB2irum9vqV5ocWUnT3N0Lp+zGjvx4yY2Gc8c+aM0B532LFv8rqc79XjWEtf1i232iZJJ77RZerozS67rrNuHKTo7xkzpgfHR/Rf8mV+YT4BI9Ja1Y/naVRqPMSUreU8s8G0+PIsj+BFe7315htDFNrtAQcdLNELrnXtn8ylL7xQM+5vtfU2rkWLlgXpyg+cayEE8p5wkPSBPHOopMM17/in4xS7v+3Wm5N9XPvsu79baumliwXPfFduueI5YQlfP08+OdbNmjkztKXVO3UKcwMZMvat6f+yaOKE8e7DDz8Ir7ft3sPzMj+Pz3Xhe6rVRrPKa88NgUYRvAZ6Zwlf+f1B/fba27t8bdEkakFWx5bxTNxefgN+tajaghfCE39ZxKS36WabF7xmYhwxfGhg0ApezPsB082EUIrplbgIQtPee09+pl6lbmOmkB27b3t3+WnExL23H/y18BXHj93RDxv6QCKwpKWJ4AGTWIzY4Hyr318lzPn+B/bPdJs75L6ByYSwy667ByHrlZdfds89W8N8sc8NIUDooRF+f9GHNfuLCP/gA0PkVbgivOHYpRihgUUTi5vfB+4fHIKu3XUdt9nmW6RGe8QvbDCxQTAbMB1CMEyY4DAhZdFyyy3n++Y+Ba9L1UNB4OiHxmcL77zmRS+kfv3111Gomp9pAoAEfPGFF9yE8c/Jz1rX1q1XcDv06Ru+Fyb7rjtuqxVGP1ipTZuw10fOmcvK+76B93jGyZ/T5mnDjTbxzPf/6WQ8c+7rZUhNvXRaY40gMEgABO3R/qzAH374Xh7VuiJ09fBOWdq2bVfwLsacb5K2RECY3D367VVU8GIhguMYBG/6GHW7+DxBj/L9+NOPYRzWDAt5oS3IKnddVsgRIugPMGlpxB7Otu3a+QWBd8JrvIPiJVSoLm33jttuzfwG0o09pcKsc8zJNO8wJ4u6+CM+aMcQY+u9847LWNb3mz2jfkMYjppgsQlayQuYaftkRADWmplyvzcex/bb/0C3pK/vNBr7+GPuzak1Cw5bb7NtcBWeFi5+Bj4IkW9OnRK/KvjNgtQ2fiwEX02lxsM84zXp5RG82NeJthtq1aq123X3PcK9/ldJ/4ThlwW3HfvsFBbHdNpyf8dtt4QFUlyxM7dA5cyhkk4545/EKXVlPpL+SPvd3ZttxnVWKo26lEvPCbQ/Fi9YkBLquHqnZPGQMWtf35bTiDkbSxGu8A39Dz4k2cNbV76nWm00rbz2zBAAgUYRvG67xa+yzJntDjp4gF/hq73S2xhVQ3koF+WhXNWiagpeH3zwvnv4oZpVfBgfJjc0I6xGs1KES/NY8ILxggHlCqH9QTCA8WLFTuy7SW/vffbLteKFtgSN1Zwf5zhWrSHS00J0z969/QroUgVMYQjo/zGw42lq2WWXC2XG25wQ7vZxuy8UM59a8Hrm6XHBUxlhYdpYFYN5xHzjQ48VzHLuifxR757YfxMkgk74of6hcbrrztvDE80g6UmkmOBFnG/88QW/+MUSftW9eSgf2pGpU2qYGBh4BCImELQKQv/XrVvwlFgNwYsz4mAsIQQstKSsMLMCjjthIcqFUChUrB4kTNZV4yNhwAIHB82aLeYn2LdCnck7BAPKpilecGAfJkws2gzwE6GZw53RAgUmfx7ThYZX2j/CmRBp0F/uvP3W8AgtCH1AE8wAjJMQ2kwEaE1iOs0ztBWrtG0bXuv64gGMF5pdaaPvT3uvgNmAaYf5EdKYS9uhny7XooX73gtGaGtw76zDaQ9uMOJDhtyX9FHyB1uupeg+L6x9MU+bTd70LfoYWL737ntBC1TuURd4J6VvQnwHQhYaSI70eOutN0Od6XLFgldd2u4Y39bJ8+uvvwoeUkl/ab+qz9lE0JLNlyw4G1D2+vKOfsjKO+Ma46QIhLzDM6IsVDG+ijaN4y5ixvVuP2YwRkOkefAhh4V7+cfYPfTB+8NPvaBSl+993Gvu33qzRtsdj6WSH1c0QQhRMbOqw6TdDx/6oEMgFFp55VUSLTHfod/Rv+JzFzVTK21aj4fUeR6Pk3kEL86PpG9AbGlga4OmSvtnJYJXOXMoZS53/NPfWewenoGFOCHmceawVXN65q1rufScIO2AfkNf+9KfIUY/mOItQaRf7bHn3l5jWHuRfsrkyd4Vfs1xPXrRqxK+p1ptVDC1qyEQI9AogteNN1znMPY55LAj4vI06u+bfLnQAxxaxXJVU/DCbEaYYwQQmCxNMPXff/9dAdPO+RwMYBAr6r28Byjt1Q0NAitWUNpEGV5k/Mtjn66ZQpJh9Wq33fsVrMTqFTMm4QMOqlkVJLyOr5lK3t1z1x1BkIGJ22e//YOgx3MhVvJgpkuZGhKesKKNylq5ln2AhN94k00T0zY9iRQTvIiHKVLWkQWl9nhpRkEzaKSrqZjGC2aOFXjaD+aLmjSjF2NQrB50Gmn3Gh/eM6lv37NXYL4l/LAHvebSm1pBcT0z+VLXCFfUNRoDzZwhEA8ceE9iMrPXPvsWmM6W2uOlGbQD+w9ItEGURR+Oze80xnmw14KyABG/0+l27Lh60AAQRgjGl4UUOQMOIUQ7G9KYEwfBZ5fd9qjFgOhwGjvtXACtZz/PvGRpQKRMXBFab/cmSBBMEVpocNeERrVdu1X1o6L3um3B3PXdedcC02QYJcorC0EkliZ41aXtklYer4YcCzH6kYcJnjpOoR3BcgDS49RT3kRqsjdLhOJx+Ruv2b3n7jvDO/m30y67FrRftOX0EUi06NzXpa+Kh17iU3dp+5rErJ4wCI8IkXlI40Nb7L1DH28q26YgKot5mOzLQoj+HgJqppbfxcZD3mdRluCFWe10r+liUY75EGL8R2MSt+FK+2clgpd8V545tNLxT/LKumJax9ymifGfeQrBOosqKVc8JyBUMbbRroT0fMsWgy223EpeJVcsDViwhMTKhvtK+J5qtVHKYWQIpCFggpdCpakLXlmDjPqEglutoYHxYvKJV2OJIKYQMeNYkFjKjzyThmYKSSKeiHmGlgdGD+aLyVGvpOv4mqkknpjn8E3VOFhZr1zDsMC4aJKVa8oIgy6ThJ5EigleWYyQ5NEQghdaEC14S95ypR5gvPm2g7zZhlCxepAwWVeND2Z1BxzYPwgpOvynn37q7h88KDxafvnlHZ7KhNBaiHkqZrRoqWLSAlLstKeU4CXn+JFmbHYlAiHlljNt2KsnDAkMJtoD2rA+PBszLsy5oGL1jvBF/+MK6eM1NOa844w4tNwx6XDSRx5TGlzK3s+bJObdv6EXIbJM4+IylPotiySEy/IcC9NMHxOmPRa86tp2yTOP4KX7v64H4gvpRQ0Zy9DyoAmCqB/qSQhTNBh0xlb5rtgqQawK4LMAABnUSURBVExZ4z5X1+/VAkWsRaVcWiDXzKqUOeuq8clqi8TVAgn7bHfyQraQZmqL9QsJn3XVgldWGJ6zn3SnXXartfhWjf6pv7NcU0Mpc545tNLxT/IqdsWa5lF/FqWMcRKWxaBtt+tRa68l7yspl54TmE/3O+CgWpp4BDvaHAT/Eu/RY7wQawVtHl8p31OtNhoKbv8MgRQEGkXwMlPDlJpQj2TijIUQrfFiRQozulg4UMkE5wkMptA6667rN/1vrl8n9zgGEHO/eMU/CZRyk2fS0ExhmimXJKttzfUeKx1fmEqJo5k53m29TfdUwVLCl7rqiTT2bsnZMPcPvi8kEbsm1pNIMcGLPVloqrKoIQSvtLxhCNnj+Kl3JDDuqScTky+tkS5WD2lp6mcaH0zW2E+YRiJI670QhLvXawzYo0R/wEyLa0xasxAzv6UEL60l0HUL43vLPKEKDaecZaNXX1nh52gMiBVica6gV1zZv5XmUEG+gf0NOLGAttp628TxhcYcLRF9M410OPpBc29Gh4MVCGYeIRYGNC8hBIpTAuLgfGettbvmjV4rHDjefNMN4XkpZlszPbHgVSth/yBP2yVeKcGLdGh/kOydCz+if+AqewK1kC6me1oTRlTRhqIdpI8xZmptssYaTXDPXr2jHAt/5vle2pI4/Ig14zDWt3tBn4UCzawW5lL7l65DTDXRgmYRZZR9N3Ff1vVbajzMSp/neQQvxpkspwzV6J96vqhPwavS8a8Yjvod9YbpIH2FeyEWDWjrq3f6ee8y7yopl54TsMTpvWMfya7gqvmCnb0ArZ1OyaIGEdhz2cVbk0A4jaqE76lWGw2FsX+GQAoCjSJ4LazONfAWl+YxLq6XLMGLiXvwoIFh0iQODOgqq7R13TbaKNWToVbVExZPammkV7liM5i08PKsXMGLvS/aY5ekw/XR0Y8keyi0qVjMVOo9XnhbQ1AQQvOF6QwYFxNIJXx81StoMYP4xONj3NSpNXuxMAdjJVBITyLFBC9ZIZd48bWhBC80WkyueIOkDtE0plF9CF7FmHhxhBCv/ItARhnR3qSSZyTlO9gft9se/ZJgpQQvAorWl/QPmifggA+OMSBWW3HkgkmhZjyfGOvbxbw9enrRQu8Vih2chATVP/a44XUQ0toQ3faznAMQR4ejD4j2DIYJHLK8rRE3ixAmESqFMNeibOz7S9OaS7i0K/vCGLcgzgnCm20WIdSI0JgmeNWl7ZJXKcFLa/kIn9XOfvR9BaEF0oszWhPGPkEWmRhX8RoHMW7NmjUjMSlEm0w7120s7ZDfunwv9c9YQjljQVCPVZpZDYUs8k8vPLXv0ME7g+lVJHShGbi2YNBMbanxsFgGWvCiTS2xxJJhHx/moCI0IPTt6R1laedCkmY1+mdDCV6Vjn/yzXmvtDkWmZhfpa0TN15AqqRcuh3GFgq6nHjnHfPYo+ER+y3xWigkgh/jHP2JK1Qp31OtNirltKshECPQKILXwuROXq++5LVnz2JAqTw0U9jQC5MpFcrq5XZ+MsRMS0gLM/Ks1DXLDCgtXrmCV6yx0mnqTeF5BS/is0mZgVZPEDxv127VYCKRNunyPov0hKw39BYTivQkUkzwKsWAF8uD8lZjjxfe2lgNFOZE44BwrnGsD8ErxkfnLxpMLXjFzi10+Kx7tDswXEJ5BC8mdyZ5SJx7jPb7fdjXIpoBzWiJkCVlljCSp5hlgalmPOW9vmqmX2vctEBVTGDR4XS6aR4Y9fti9zDv9EntUILwMDcIYGgA85Le34XgFrvb1+los89Y8Kpr2yX9UoKX3qSvy1PsXo/nmkGU/Z/srUWzQhvAFPozb04rXklxYY/nNhn3JIwwj+RbyfeO8m1XPDNqAWeQ3wv5pXc6FDOrxb6Td3qvshY4s+Lpg3kxI5N9tpqpLTUeZqXNcy146QOUERowWaZPQPG+yfDQ/6tG/9TjQX1pvKox/sk3l3ulnVBf4hGVNoM1Ctr3Ssul58ximknmI7TJzFd6XuAYG7y1QrFAVinfU602Wi7eFn7hQaBRBC/xAlZspaOhq0BWSfJMKuWUTa/24syAAboU3Xzj9YEBxvvZXpGXNeIyCGFOgtCBlkYTKntxS835IUyYEHlrLY2Oo+/X8UxVng34xGkKghflwBZ8ohe+pvhv1QIFAzX4yaRP2FKkmURxL67NydI8HupJJBYs9CCe5vFMl6ccwQvTL7RHaaRNRzVz8+2333gnFXcmwhWr4R06dnAdO3YK57mBk2aYmoLgpU2cmPi1p8W0b+dZS7/40KnTz2YxeQQvnEWgtYBEMy31Ib/lyAnCYHqDaZjsMYjHMlmNJSyCF4x1FmlvpdqMUQtUxRYtdDgwkj5AnmiYYycqWeVIe46mA2EIN/ZaKOe8u129k5w8pJl2rdFLi6vdnGvBq5K2Sz6lBC/tcAJtt3gsTCujPEMYFicvWsskzL7spZLfxJM21d7vBUODIAJArNGs9Hu1p0Tx9qbbCUJf2vll8m3xVWvmOnfpUvSMMOKKgMe9bv/ljIfEzaIswYvwCAXsFRTNrzYJlfSq0T+14KXnXclDrrJvNja75H2pObQa45+Uoy5XBFmwAlNItF6VlqvYnBmXU2+xEJw50mDyvLMV99hzrwKtfqV8T7XaaPwd9tsQEAQaRfASRlZPSFKgxrqKpqMcjU+essIEyd4BGFtW/4oRnphYRYfYwM9G/mIEw/ikF7DEXbE2LdHMhqzCFkur3HelJg3SK5zsVw8mN2n5yMov78rReOm0mAxe8+flPP/cswnzmWffhE6D+3i/hggyMLIHepOz2Ayp2CRSziAuTFls5ijl06t8q+EZMGM/iGzWJ54WvLQZF/bwchaRpM9VNDjcNwXBi3IILnrFk+d5KY/gpVdWESq22HLrxMX33vt607GllwnZiUkiHkDZS4ZGA4qdGEib4V3MGPBMk96To82/8vadONxiizVLFlxoswgwOMmohGC8xvt+JQdJk5be01Ysba3RQxPda4cdM4OLMxMCaMGrkrZLWnosTDPp02OZdpJC3Lz0gHfdz4HLCL+cJ3TrvPOF9F4mMUlEE49mVZwHxONzpd9LmcUZkPQbffxGlvOQrG/FHf+9d98VXscOM9LiyMG8ej4iXDnjYVq68qyY4EUYbb6LaSzzLpoaoWr0T+2Nt5jWBqddUF0EL+JVOv6RRiWk201Xv0d503nnR1ZSrmJzZlxW7XhJLAKkfen9khJP9/W4X0mYYtdqtdFiedi7hRuBRhG8YHJuv/UWby43u8CLV2NVhWyu5wyvA/sfXHR1ui5llAGKuLJilJWO9hRUanVY0sDskPOlZK+WmEHplfR4RVXiVnLVzErHjl6o6rF9reRiplDv0dKBqyF4SXp6P0IeYVfiyXWs388lB4T23WmX4EKaNpvlbr/YJFLOIC7tJKvMWojnLCfcg8fEKi8rrKL10IKXFkDShAFWNxEsRLPRVAQvvXoeb7COvz/tt/5u2VuTFk40FAgra6zZORzDEB/eKQwfwncbL8yw8BEzl6StTeay+oaUQZ+Ztat3qdyqdevwKm/fSQun92ghCOBZjjPIKiXterrUd0letEkWMyDKwviUtk+M9ocGUdquFrx0HZbbdslXM2PbbLud12j9rBHlPSQMMmXDpAqBpRzSeWA5gUUCpPug1v7pMPFhx5V+L/lq5wNoCphbEKBjU1zC5iGxxKB/4Fwjax8t5vAINlBrf24eZ80JlTMeSpy0q/RD3mlTQx1WBGGeiYZR3lejf77jnThQDih2YiL5aI+XpQSvrP5U6fgnZanrVTv/0YJMJeUqNmemlVMWBBk/evojceQ808232Mo7/lm7IEqlfE+12mhBoeyHIaAQaBTBi/xFVVzK5l+Vtd5uZRDWNvvVzEwPXKx04t427TBAfU4KAwyrdHqPEoM4pi1MfDHJvjCe4xwAxhCGB0ZG9oPFZnA6DQQNDtNNK5cOp++1M4q0g2UJm8YU6jTkvi6CFwIzh//GpD3cZWmP4jj6twjiPEP7wSo2lOV4pNgkUs4gLnVI3ceHrIYC+H96Q3PaqvU4b4KhtRKa6dPMXJrJpBb6ya+pCF6agcSxBfu3wCgmzLPeefvtWp4jR8/bq0X4XXf3gk2rGsEmjo/pCuMSRPoIALFJp96zKWHElEunx8HOg+69JxFiEeDjM48Iz7l8mNJA8ept3r6TFU60+KRNWWGA9cHcPE8jTHc5DzDNKYd2aIOXM8aUPHSvP8z263n7brK0rexdxeRPKEvwKrftkp7st+I+62BhDjHGRA8qZoqHBg/LBEwNNdH+7r6zxlpB2ka890873JAwaWNUJX1VyqQXUmhb7NmBtAZOwua56r0zeJfbybfp+GgK5hwWEqSuYwuScsbDYmXKI3jxvQgHQroPVqN/6nkCIZ0FhXhu1sJJmuCVZw6tdPyT70+7YkaIw4q0sYnwCOqEoS1Bes6ppFzF5syQUfRPL/jInEz/0U41JEqlfE+12qiUx66GQIxAowles2bNdDAGiyyyqNvHm/I0j85MigtaX7+/xbTPm1DMnftTOLw0zz6ocsvCQKDP6mFwXrNz53DuzzLeEQCbrhG6tBexNIEUEzJMCrttuJFr6012lvNxP/aHB77x+uvJIcnxJP6ad3+MqYDQGt7r3zrrrRcEFsxHZkyf4V3Ijg+25rgyxjSvHJJVUOJsuNHGYW8NWgD2SDAZZTGFcR51EbxYoYaxId8VvfaBie0jf3jmxPHjk4NYy2EOdZn0HgCex5oPHbbYJFLOIM6mcMwqoI4dVw/eKvmNMCwCZsH5TB5f9mms4t3xwghOeP45J+ddSfm04CV7K3lH3YAbmp1vvvk6uJ+WIwUkblMRvNDAsYAg+wzQMG251VZ+71Lb8B2MJQhcnOWFYBbvi5SFFb4LLDHnW9SPOz/M/qHgEGCYC7SFmmJBDWEM7Y1oBQkr+w50PO71wbj8RoPN/pgWy7Vwn3lPf/RNOXiX9+yZgqkQytt3ssJRVtyZC8MNo5LHy6GsGGMWuO566wdNGWMYz5/xh29LPaSZ7EnZ46vWgvAOk6FuG27s23XL0FefGTcu6bMSVwtelbRd0tOaB0zOWClHeJgxfXrivl/v4SMOdYFZFXMCi1cc8P3aK68EHLKORZCVeeJDaUKeNgUmTCzc86zS7yUNSAtw/M5iVnlXiqh3TCNFI8lcw6G2K7VZOfQHDi5+8oknfPuo2XcMM4+wo6mc8VDHi+/zCF7EwestiwUQlgT6IOVK+ydpyh497pmLuvfo6ZanTft5eaxfUPlinrDL+zTBi+el5tBKxz/yyCLR8jJudujY0XtJbud5seaBz5gx/SPvYfTVxJImtsSopFzF5sy0stL2mAP0uFts32slfE+12mjad9gzQwAEGk3wIvPHvOkDzgy6rOX3m/g9FY1B457yGgIvuHTwjC6MRH0RK7kwzTJpFcsH5xio05kkNcUTtn7HPQId+yfEuYa8Hz7swcBgyO+sa10EL9mzEKcpB3NmMYVx+LoKXnE6+jcMFp4JYRDKJcyEYH6EEFJwoJBGxSaRcgZxfQiwzkev8Meb7nU47jGTwpToM+/2HNKCF6urMIYw0WkEXjAH1BnUVAQvygLTP+rhkSX7T5pDmnjlm/SgNMZQ9zHwYBU7Ji0g00eztJPsORwxfFhg+uM09G/6LZ7+EMw05e07xcIhTMqCDWkjcJc610sEL12W+L61NyHjWAXKnpdijWocDy39ql7Yk8UDLXhV0nbJJ2YSJW/6iz58nXOM+CtFWYKX3g9DGuJaXqfHHlTMEoW010F5Vun3SjpxXcZn3Em4vFcWCBF6Ss1jaNh28kJX7KipnPGwWJnyCl5B++GFRTHD186zKu2flE9rrNPKCw4slpJ/luBVag4l3UrGv7RyyTMRvOR31pW+iWl7PJfWtVzF5sysMsR8jNa+pcWJw6eF4VnM91SrjWblZ88NgUYVvLSqvkfPXq59+w4NWiPv+nN6Hp13Tk+pTlyNgjGZkh+rr3rlRtJmYGY1nskxjfC8yISdNulx6Ofmm2+Z6cGMDfza6YROn5UsBAs5/FW/K3XPKfHDhw91X3j3rprEQYY2vym2QqUPtNTODHT82KRLb8TXecMMcr4Zm/85T6cupM10SA8BBkY8jV5/7TX39Lia88RiLYDea1PKqyFpa42W5BWffUW/GTlieOJQRcKhleu1Q5+g+ULrCMl+PwmDdog2iIZMEzj18Y5cWAzBlArSglexetDppN1rfIqZu4o5GpO8nKWl06PMMCns4YuJOlrNjx+bbLqpW2aZ2ocF0/7RfOl+l7ZnT3sqy2qv2sQmjyMGzNxgyMXkV5edvXpM/Mt5LVhMGvOsshCnVDhMBwfde3diLgS+B/g9TPHCjuQPzpxZJuZi8pwrcdZcs7PbzHvUzIqvw8f3r3ot3/O+HvQYRt3BoPb2bZfFDnHrj+YSQVqorm1X4qPdevjhhxImnOeYctO3NU33K/30EcbrmBDU2M+DJittPNBHPmRpybWzAARhzKXSqNLvlTTFEQG/Yw2uhCnnSnvCLHTmjBm1otEmEG6wykijcsfDtDR4pj3dxY5t4jhaOKKtxQ6S6to/JR8ceeCNM27THO3Sxwuf4hUw1hhJ/FJzqISrZPyTNOIrYxnaIeo0jWjvzLvUZ/Pm6QuYdSlX3jlBl0lvxci7T7EufE+12qguu90bAhqBRhW8KIjY7i7hmX82gKOubwjCBADm4ns/4BTTZtRXWWBqZn08y83+YbbfTN8qmJLlYWRYpcOM4St/8O0PfhUNxoQBPmtQjMsPkwYDgmAB08c+DgS+SgmPe5/6crHCiQe1PN9SaZ7ExwThU78HC5t9b5Hmv2m5sI8ljSmqRn4NkQZ1NGtmjfDTZuWVC/b56fzZyzbTC1K0CUxP9X5AHS7tnmMOYBKpJ+LOT3jB4FD2T7wA1nzJ5qEdY3Yb7zeJv5s2j1AJvrTRugrlcbp5f9NWMVeDoW/p+x39tlSZ86ZdH+FgqBByOcfnF15YY7zA5LUafRuzPsycl1l2meCkRHDIOs5Af18lbZe2w3hBGi39QdvatFPnwT3thfpirMUkHDNV8W4Zh63P35V8rzbRWnrppYNTjGqWFSHyc78QtJgXINl/jHAxv1Kl/ZMFMcYX5kAW/srtJ3nn0LqOf8XqRcZGtOc/+W0X8BXL+gUs2j3Cah6qj3LlyTdPmPrie/LkbWEMgRiBRhe8KJCs8rPpnf0S9T14s7qDV5xPvKCAXfN2PXrGuNhvQ8AQMAQMgQZEQO+FTdNENWBRFpis9F4xzFnznIO3wHy8fYghYAgYAk0QgSYheDHhjvDmaniUQvjCLXl9ab7QdLHXAKGLzdV9+u6c6tq4CdaVFckQMAQMgQUWAe39lX2qLMIZ1R0BtBic5YWJK9qXLDf+dc/BYhoChoAhYAiUi0CTELwoNHbOo7zdOMIXZofsz6n2ni/2dOEuGvNChK6ePXvX2vxbLoAW3hAwBAwBQ6A4AhxX8aJ3WNOt24bBkZEOjYkSeyTFwyOmTTilWMqbxhnVHQF9SHCal9y6p2wxDQFDwBAwBOqKQJMRvPgANF9sUn3Hu4aG8Ha4wQYbVuxqHpfxkyZNCN4LSRfzQg7RZOOokSFgCBgChkD9IqDP/0L7wn4j9qV+7Y8yYHxG+BLChT0HtRqVjwDe/jiqgH1pzKcQxy/ss9/+waNl+SlaDEPAEDAEDIFqItCkBC/5MHG4wW/O+eq6zjrhrBU5y0jClbqy2XXK5MnuVX/2Cud0QY3hSKNUOe29IWAIGAILMgL64Oms78TD31Zbb+vw4GhUNwQG+oOqcZAgBKacD1dfpvuSj10NAUPAEDAE8iHQJAUvio7QNGnixHDOl3wKB1mu0rZtONCyRcsW4UyJZs1qXHzPmTM7uMj+/LPPHW54ObCTqxDndG3QrVtyEK08t6shYAgYAoZA/SOA17jJb7wePAV+8/U37nt/0O7SSy3tvQsuH7wLdly9k2llKqwGjkzgKIlmizVzeETFDTjCl5EhYAgYAoZA00CgyQpeAg/CE7b/b735pt8kPFse57oilK3eqZM/n6pLENZyRbJAhoAhYAgYAoaAIWAIGAKGgCFgCFQZgSYveMn3cvDpB++/7zjc8hN/DgvnwHz37Xdu9jxhbHEvZC3ZfMlwEClns3Cwadt27XKfQSH52NUQMAQMAUPAEDAEDAFDwBAwBAyBaiMw3whe1f5wS88QMAQMAUPAEDAEDAFDwBAwBAyBhkLABK+GQtryMQQMAUPAEDAEDAFDwBAwBAyBhRYBE7wW2qq3DzcEDAFDwBAwBAwBQ8AQMAQMgYZCwASvhkLa8jEEDAFDwBAwBAwBQ8AQMAQMgYUWARO8Ftqqtw83BAwBQ8AQMAQMAUPAEDAEDIGGQsAEr4ZC2vIxBAwBQ8AQMAQMAUPAEDAEDIGFFgETvBbaqrcPNwQMAUPAEDAEDAFDwBAwBAyBhkLABK+GQtryMQQMAUPAEDAEDAFDwBAwBAyBhRYBE7wW2qq3DzcEDAFDwBAwBAwBQ8AQMAQMgYZCwASvhkLa8jEEDAFDwBAwBAwBQ8AQMAQMgYUWARO8Ftqqtw83BAwBQ8AQMAQMAUPAEDAEDIGGQsAEr4ZC2vIxBAwBQ8AQMAQMAUPAEDAEDIGFFgETvBbaqrcPNwQMAUPAEDAEDAFDwBAwBAyBhkLABK+GQtryMQQMAUPAEDAEDAFDwBAwBAyBhRYBE7wW2qq3DzcEDAFDwBAwBAwBQ8AQMAQMgYZCwASvhkLa8jEEDAFDwBAwBAwBQ8AQMAQMgYUWgf8HAAD//xrunhYAAEAASURBVO2dB9wVxfX3D70jVRCkCwhYKAIivShVpVnBmsQYS4wlsZt/YjQx9jeJMXaNKBaKKFU6IioqoAFFpHcp0kFAfec3D3M5z7D33r3P3od7gd/hw3Pv3Z2dnf3u7OycOWfOFPjZiFBIgARIgARIgARIgARIgARIgATyjUCBI0Xxgn64ZvVqWb9+nWzevFm2bdsqe3bvkX3791k4RQoXkeIlikvZssdJhQoVpEqVqlKtenUpUKBAvsFjxiRAAiRAAiRAAiRAAiRAAiQQhkDWK14bN26QRd98I0uXLJH9B5SsMBeGNIWNMlanbl2p36CBVKpUOexhTEcCJEACJEACJEACJEACJEACaSWQtYrXli3fy7y5c2X5sqWxC4bydEK1alaJOq7ccVKyZEmrXCEBlLJdu3bJ1i1bBcra2jVr7Kc7uFbtOnJ606ZSrlx5t4mfJEACJEACJEACJEACJEACJHBYCGSl4vXlF/NkzuefWQAFChSURo0by0n166esNEF5+3bRIvlqwQL5+eefbH7NmreQU087/bDA5UlIgARIgARIgARIgARIgARIAASySvH68ccf5YMZ04yVa5m9Ow0aNpTTT28mJYxlK4rsNpawefPmyDcLF9psatWuLe3ad5RChQpFyZbHkgAJkAAJkAAJkAAJkAAJkEAoAlmjeO3ZvVsmT54oGzdskGLFi0ubs9pKzZq1Ql1E2EQrViyXWR/OlB/27JFKlStLly7dTECOEmEPZzoSIAESIAESIAESIAESIAESyBOBrFC8YOkaP26MVboqVKgoHTp1NtEJy+bpgpIdtG3bNpk+dYqJjLjJKl/de/Si5SsZNO4nARIgARIgARIgARIgARKIRCArFK9pUydb90IoXd3O6S7FjcUrP2WPsXhNnDDeKl9wO+zYqUt+no55kwAJkAAJkAAJkAAJkAAJHOMEMq54uUAacC/s2atPvlm6/PsMy9fYMe9Zt0MG3PDp8DcJkAAJkAAJkAAJkAAJkEA6CWRU8ULUwVEjR9jr6dSla9rndCUDhTlfUydPssnO69sv5aiJyfLnfpG9e/fK7I8/sijq1jvJLgdALiSQLgI///STfPfdd3L88cdLgYIF05VtVuWzYcN38s3XX9synXZ6UymTT27YWXXRR0hhEDV3/bq1UqRoUWnV+swjpNQsJgmQAAmQQKYIZFTxmmbmWmGdLkQvPLNN24ww+GjWTBvtEOt8dTRzy9ItO3Zsj0VprFO3nl17LNk5wGTHjh1S1LzM6zdomCx5Vu/HdQx/+01bxtp16kiHjulnnNUAWLh8JTD0tSFGuf/BPCvF5OJLB+XruTKV+YL58+XT2R/b07fv0NEsCl8vU0XheT0CE8aPlXVr19qtgy67IvR84e+//17WrF4lRYoUMe+/k71c+ZMEspMABroWLJgfWLjChYtIufLlpHz5CrbvEpiIGwMJYHAN/T54Yu3csdO2I8WKFZPSZUpL3bonSWUzsEg5eghkTPHCIsdj3ntXsE7XwAsujBwyPq+3BKHm337rTbvOV68+59rFmfOaV9Bxi79dJDM/mGF3NW3WXDBinUygqEBhKVCggFx2xVXJkmf1fipeWX17jujCbTcvqRHD345dQ9/+A4yr8nGx30fLFype2Xsn86p4fTFvrsyd87m9sMuvvDp7L5AlIwFFYN++ffL6kP+qLcFfq1SpKm3atj0q2+PgK87b1nXGWv6h6R+in5RI+px7vlSoWDFREu47gghkTPFCWPdF3yyUxk1OkTNatsoosk9nfyIL5v/PWpcQxj6dcjQrXhj9WrToG7tI9Yk1agQqlVS80lmb8i+vMPcy/86e95zfG/WODZJTsWIl6X3ueXnKKNuv/UhWvFYbq85C4yYJxl3PPidP9yebD6LilfzuYErBV8ZKsnbNGuk34AI7oJj8KKbIRgJhFS+UvaBx/T6/3wApU6ZMNl6KIMja118tkKVLl5h1XTtI5cqH16r03XfrZfzYMWbQ/+cYH6wtW6hQYdm/f5/8ZNpMJ1S8HImj4zMjihcq2utDXrWVKxvmVrm5ZjCVXzJocFpfDEez4rV9+3YZMewt+yTA/QluUL5Q8fKJZOfvMPcyO0sust+MwhY2Llt5lWy/9iNZ8Xrt1VdMO7/fulgPvPDivN6irD2OilfyWzNhnHHHNCP7kMsuv/KonYuZnMSRn0IrXuXKlZOu3XIGU6AkbNu+TVatXGGnbjhlolSpUjLggouy8sLn/+9L+ezT2bZsmGaC6SaHU4b892XBUkoQDBye1a6dddN0ZQBrDFignN179hJE/aYcHQQyonitXrVKJk2cYN364N6XDQK3R7g/oiGpfuKJaSsSFS/O8UpbZcrHjLJd+cjHS5dsv3YqXvl596PlTcUrOT8qXskZHSkptOJVqXJl6dX70P7b5k2b5L1334ld0oUXX5rvSwTFTpbCl0wqXps2bpTR742ypS1durT0H3hhCiVn0iOdQEYUr88/+1T+9+UXcupppwtCuWeDzPn8M0Fo+1NOPU2atzgjbUWi4kXFK22VKR8zynblIx8vnYpXPsKlxSsY7rE0x4uKV3AdOBK3hlG8cF3jxo6W79avt5eYCWtSGLaZVLzmzZ0j+A85uVFjRkQNc8OOojQZUbwmvj/BRnTq3KWb1KhZMytwrlyxQqZMnijVqp8o3dI4FyE/FK/NmzfLHKO8wkKHcO0IwgE/6oqVKpuHuFFggBCY/vGgw9q4desWa+IuUaKElK9QQVqf2UZKlw7vh40GC6H49/7wg8lrq71/cPUqX7587F7CcoiojEGuhgu//spGety0aaMtBxbMrn5iDVsO+IXHE4wSocOC43bv3i2FCheWsua64ebY5JRT4x0WdzvmnyA/SOszz5JiprwffviBbNywwfpdtzijpTQ8uVGu45csWSzffvONmVe0Wfbt22uv8TjjcoFBhOqm7vhyyDmKFTXnnGcioa2xbODTnTMRuV0s4iV8vxctXChr1qyWHwxjRD7DxFr4oZcoUdI/Ra7f35o5d/BZ37pli2WEulHKjKhVMJGmmpkBhbJeKPJU7qU+Uaoc9LH6+4rly2S+mV8JqV+/gZxk/scTBCNYa7hB2nfoZOpsacHi67tMgJzy5crLmd78TLcPLhqo43DbwFxO+PajzuGFF7Ye47n54oucunJW23Zy3HHlAouJQDrbtm21+5HOl/Xr19k6h/uDcuC5LFKkqFnKopydjB6UbxSLFwaTVq1aKQVNEKNzevS0ZQMDzLfZuXOnFDbPEM4JdhVMWxBPUmk/EOVvzpzPbFYbTKh/COohRsidNGvWwtTTxbLFcHBlQxpfsBTFRvO8oy1xbk06DaKAzfxgut10snlW0RZo2b17l2CgD6Pw23fskB+N2yPyKnvccXb5knjtxiHPbZy2IZnF6yszh2SZeR4hhQoWkrO797AskileqBtzzWAg7p2rJyVLlrTuRnXq1pXaderqywz1HfVy7uef2/YT9x5tLSLQ1Tb5NTLPwuRJE017s8e2R0GDj2jL55r7inuK9hduUmiD4U7W3Ayg1qhZK1YOdNAnvj/e/ka77earVDLvqAIFc+5zTZPe559KPcN7BO0QpHXrNoHBB/D+/cbMJYd0MG0G2kJf3p8wzrrDYo6Pnm+eyrOKgVvnTtmyVevAd7A77+xPPrbvbvw+p3tPM6enkNuV9BMc58393Lw/1tlnGe9/3IMy5v19fJXjpUWLloFu13iPTJ70vs0f7Syek08+niXo9+BeYY52x05dkp4/rOI1fdrUWL0/s81ZcSN35vX5xPODZxTPFNq1IEH9fH/8OPnZ/Ktjnhe095AZ06eZd+92QXAmPFsQPFuubpQqVdpEX+5kt7s/qdRLd0yiT7yLUA8g1apVl27ndE+UPO6+vJTLfyesX7fO1gU832gTatWubdtlnBTvzUQujq7NCGqfUecQP2GD6c8gbwje2VWqVjWKZptD6n266qg9UZb/yYjiNdzMC9ph5gdlUxQyvJRGDh9mwneWkf5mAnC6JN2Klx4pCSpjo8ZNBA2/lp2m0o8fNyZW+fU+fMfDhk4i1tkKI2jAV61cmTCpu7d44HQ4edMGyjITNjVIoAjCHzxI+fryiy9kzuefBh1mt1WsWMl2atAAhBXdoW3brr1tCPEic6JZohHH8gfwYY8nDUzof7/zr88BRQ4vDLy8fEHDP8C4G6w1cyEmTsjpsPhpwOXc8/uZjvKhkft2mY4U7gsUwniCji0szLDqOknlXuKYvHJw5/M/oeSOGf2u3Yz7f8FFl/hJ7G90OGA9wSc4DBp8uZ0r8pqJsIU5XkHH6n1NTjktFpIdGYIFXIrD1mMofU5JR2ep6gknBJZz6Guv2sEQhAK+6JLc4e31yH/gwWZj0OiwrkOphpPXigHcuseNGR3rBOsygAc6G0HzHFJtP9DR/cgET0ok6NhDiYYCCEHHAx0QLbjXmAeBzgUEE/X9uq/vi88OnRvM4UA+8QQDEd3O6WE7BDqNZp6obdB8/XDyGAT5cOYHsWzRiXEDORgswNziAubfCdWqxdLgCzrwtsN44Lpz7TQ/MNBzft/+/uaEv6H8fTBjelwWWLYE5QXroPzRWYNykUgQFh+dbAg6tG8OfS1RcqMoVJEePXvH0qRaz6DUujUiG558sh08i2V24MvI4W/bEN342az5GWaA7GDbh22bNxu3OBOgB1K3Xj0zuNXRfk/1WXUeMzgYg8kYVA4SvF/QRkAw+AM3vLCCDvIUs+4ols+IJxgA7dS5yyHPkv8exv1xyyAgr6B7HnSOsIrXOyOGxQZle/c5zwwKVzokuyjP5+h3R9kBBGQaLyoolLq33hhqz1uzVi3Dpav97pYgsT8C/kARxrPsJNV66Y5L9KnrHdL5bVeiY92+vJZLt1m4N87l0eVb1yjlbkADAzy+EurSwaIJyyYE/S8d3ArtOvoW6C8ECZZ/6d6zZ645bemqo0Hny7ZtGVG8XnvVdJZM1JZLB19mRlzzPik+nTBRHpQL5UG50iXpVLxgAXGdcnSUatWqbUeRMfqIDixG6LSygGvAxHa8APEJQWOP0S5YUTCKD+sRBPmh41/SjF4mE7iJLl+2TPb/uN9aVpAe+elQ3l26dbPWGf0wuXzRsGFNrzJlytoyu84X9iPcPsLua/GVTXSYjz++ih21Wvztt7HOBEZqwozaubx15wqKDzpDKBuuY7uZKIwRMjfy6+YA4lh0/DHqjHTgt2L5cpeltUppBVafwyVChwOdTIy4oYFzHUtcE6yY6CjCeljT3F+UCXXIdR7R4UfHXwsatzdwjw8odCgfGJUzViC8pNeYRhDncgLrHjoqkFTuJdLnlQOOjSeon27kMahzjeOwUO2HM2fYLHQHSStXvtLm9qEz8pNhBIYY1Sxo6jq4nt60Weh6rDv4eVW83n5zaKyOYXQdFiDcK9xfWCAgeI6gsGG7E12HoiheyBMMYHWoVr26VRC/Ned29QbnvvjS3MGF8tJ+oEPnJq2jg4H6jXPDuuLktKZNZd/efUYZmGY3wdLpWwihLGDk3ElQ2/DeqJF2sAHtFzpLjps/UIOO5QknVDN8C8v332+xHhfumUIn4KJLLrVtoDuXZp6obdCdGK14YYAGo8FOMOjiW3fcPv0J3uiYu7Jh/Z4aNWraDgzW/kK+WEA7FcXLLwuegerVT7SDFejMO0uNK0dQJxxWgqWmrQJndLIqVqporASlrNXBuZTheBcsCx10KC8QeFi49w+OdYI2yrX1ealnGCF/4/UhNjtcE95fWrSSg+3o/KOjqcVNe8C2s40C7pTgVJ9VXRbUQdQFsPJFK7BB9dlP737786YwsAMvEVgQ4Ca+etVK+zy79P36D8y10Lp+D7v6jPLB8vuDUcJg5dEdZ5eP/xlG8VppvGGgIEJgUUeb4p5Ll1/U5zOK4jXdDKCC2c6dO2LvHVhtixcvYYtXvETxmHU9L/XSXWOyT9d2uXS1a9exA7dhBo+jlEu3Wa4uoA0sWbKEHaTo3LWbTDJeaRBfCXVlxefUKZNifR+tOKIPg36CE3hSoK6in4I2BP1ViD/wkK466s6bzZ8ZUbxefukFM84Xf6QiU8BeMeXC2OoVV16dtiKkU/FyLz8UDgsRQ3nRgs4kXEV0BwcjrhjJhKCz37Xb2bmiSsGKhEYQghdhkDuP3RnwJ8y8IP0wIQtYJs49r68UN59OdCPsL4SLDjleguiI4EXRo1fvXGFf95iHeLgZ1XSdx/4DLzAvo3Buk7pzhbJgNL33uefbl4UrGz5Xms7OlAOdqKDyo/MCiyLEL79/Dn8tN/+FijzqnXSStG3XAV+taM7YMPjyK3O9yPQ9hsspGPkuiVpxQGOKlyE+nehz1KkbHKEyCgd3nqBPPVqsR811Whc2HtucNRXfnXKVyOKFdBCM3GEEz5cw16755VXxQgTQ4836NrB8oEPiBIoJrMJO+fKtP7oORVG8cD5tdcFvdBhxbmeF9fPXdSsv7UeiOV54EWM/rh8dAD/qIV7+cCdygnbt3PP7up/2uFdfecl+okPvOo66zUDilq3PtK50sQPNF9zzscbS6hR+KOH470Qzx7Z4bYPuxDjFyw8TnUoHG4uowrIOweBOe+MepwXMsNhq1arBFled1n13SgR+B1nlV5lO++SJOW5oSBOkeEFB3rZ1m3Qw0d/Q2dei30tBlidtPbrMtF0F1KCCyyev9cyteYl8Lhl0mR24cHnCFfHjj2a5n7bNRNup5Z2Rw+3gIRQDvS8vzyqsybj3kI7G6oSBUV+G4TnfkbNGJwZYwnSykYe+TnTQ23XomOsdgHqBQVkMvkIwuKIDl/nvYbQ/eNf5FmR7cII/8RQvPMNwG/5m4Ve5ohpiMMV3H0/H8xlF8XKXF2aOV17rpTtHok9wGGXqn2uDkBb1EO9ADPjqd4SfT5Ry6TYL+cLa7S+jpPliGZDqZqBGC5YHGXLAAwXlvNR4oDjRdRWuu1gyygmOGzPmPYH7MUS7oaarjrpzZfMnFS91d7Jd8YrX+VSXkOsrlJI333jdbkMDD4uA7my7xM49yn/5uP3xPsN0WP2HKcjtAI02FmXEKA6UK71oNEannGsiXChh0fNFv2BTCdiiO1c4L9w+MJLoi7bIuBFdP43uJOpr1OcIUg6QD1ztYLGEwDpziXkh+50T/VLXZdD3GNdwgQnZrZVam+mBP7oxhcshWDkJcy+jcHDnCfrEiwd5Q1BPoRRq0aPJcA3ra0ZznYRVvGCFxBy5IAlz7elQvDB44I/8uvJ89dVBtyn/ZaXrkK8YuePjfeqXrO/a5Y7R841glYF1BqLrVl7bj0SKF87x7jsjjAXqe3y1lj79/Llwy3gmMLCC+j0YloQDHXdYyjE/B6ItSrrNSHTf9cgs2kUoTk4080Rtg+aL42EpRzvtLFaprlOpByGCXONc+cJ+akUOgzJYRytIMN8Erl+QIMUrUd2Fm/Pbb71hj4VC6M+5SaZ4Ralnbg1OnBwuofVOqm/LgT9jR79nlVRXf7ANZXNKK67JubJini1CdjtJdL3xnlWtwAZxcNMZcI6g/e7c/ueSxYtjluGgAQqXHsoX3uX4hOj3hP8ejqcYurzifWrFK14at72VGfBw86rcNnym4/nU77JUXQ1dWZIpXlHqpTtHsk/cq+nTpti5djot3hN4RwdZyaOWS7dZ8eoTPHE+MFZuSNCAPCxXGHCBwH0aA3oQXVdhPYYV2RfMrxv+9lt2c0U1YJauOuqfLxt/Z0Txoqth4qrgRgzwwtdKiB5ZhLtJ9x697EhxvNwQuGDqlMl2d+MmTczE4dxzv9xx6Lw4dz9/1NClCfoM02HVD1OQO4jLF37GbhQEI4GuAzbMvNBhCbCdLoyWGia+6Bc/RhnxUgkjunOF0fygCa54AWNUHRLUIbE7zB/9MtYdAH0OvITwMvIF8xRwPKR+gwZm9Kmdn8TOP3Mdo85dusYmsmsrVD2jXLSNo1wgQ22Z0z7v2JfsXkblgHMkEn3/EaJYB2LQigHm0GHU3klYxWugmTsYz4022bXjXOlQvFyZ9SeUzi1G8cCLzlmm9YsMaXUdiqJ4dTEuJCcatzVf8Nw5P389PyUd7UcyxUu7Xul7i5F7LC4KwajoR7M+tN/16OssM49s0YHACReaQSU34JCKVcFZPJA5FH5ngdDM47UNOEZ3YjAgAPchDCBB4llv7c44f7SiBGUQ1lW4G+ZVZppgL/C6gGh3ID8/3U4nauf0cVCGYeX4/vvNgnsB8QdGsC2Z4hWlnrk1OHEeBIjo0vVsfLULdr96YH4glHK4FGKAT98Tt6wN0mPEHyP/iSTMs+raI7ynYAXQA52zTOCmRSYwE8S3aic6r7ZuYP4WXNDjiVagz2rb3libchRRfX/hUoz3fF4kjOIFK9rZpt6iUx8k6Xg+D4fiFaVeBl13om3wfEGQIDcI5dLCPRZtAO6Zk6jl0m1WPOUYzwoGJdwAhJtT7cqgB4v1u3WmmUe6ePG3NhkGMjCgESQYaEdd0u6G6aqjQefLtm0ZUbyO1eAavjtLvMoQT/HCiNk7I4bbFwiOReOOeQtNmzcPjKKkR0+RFtGPgsS56WFfz959crnyBaV328J0WPXDFG8EBPlpf2HtLgilBw8/BCOXgWIaCdfZ8d2RAtMf2Kg7V/EsZbpTisPilQHR0tBYQfSSBPocem6VTXjgD6LMYeQWEq8h1KNzsNy4eWR6/pt+0R7IOtcHRtfQmEL8zlWyexmVQ66CBPzQ83l8FyunfGMUEJ0ZbTVyHZ0ga6Lbh/Tajcg/fbJrR/p0KV6Yp4mOMJRg+Lq7OqPLpDuH2K7rUBTF64KLLj7EBRX5a4uiHolPR/uRTPHSgya6fUAnBPM30XnD3B3XidZuuK5e+KO2rs3A4I0f4ATXq2XG9Klm3sESuwkDWYi4BdHM47UNSKc7MegcoTMB0fMQ7YaQf9DWvWW8FHBPnCDi5WmnNxPftdztT/Q51rj1uMiSWrEMOua/L79o66PfNri0iGAL74I1xv0T7bprl91+fGJAEPOLtCRTvKLWM+exgbb50gMKhZ5nhOsGB0QSxVwet6Cvq2Moa9CAY16eVT2I5rvZufbId0fXrIK+63m1ye7hsqVLrQUF+ej53vo9jCh1fc47P+hUSbdpxQvXUat2LVPn99u5znoesbZA+5mm4/k8HIpX1HrpX3eY3xgA/9Ao6HBHdQLXXr3OV9Ry6TZLe+e487lPHZlST23RdQDzt/qYqSNO9H2xrpIBA+VI6/qc6Jc640K66qgrSzZ/ZkTxOpbCyevRiSBf2qDK4aLu+L6zSIsHE2HvnaLhjsdIY8fOXW1QBrdNKzNuW7LPVBaQDtNh1Q8TOg54gINEd4Cc4uVPjg46zt+WyJ3GT6s7V/5L0qXVQR3ctmSf+j7rc8TrNMOS5ULLIqoWOm2+fG0sYp8YyxhEK17TjEVzubFsQsIoze6l57/8k93LqBxsARP80SNsut6js4cIWRBfIcM215lJpHgl64Anu3acJ6rihU4qItW5ORjIUwuUQ9eRzS/Fy81B0ufFd5wX9QKiFa90tB/JFC+cE4oGlFB9310b6KzE7oXu7rN++bs0yEtvDzMIozsx2uKmn9t4bQPOpzsx+A2BlQMKgHOJzNka/i86XROMF4LuyOJoKHawzATNU4yXu5vfpTs48dImUrx0EAr/eF1386J4Ra1nuoMIqyPehVMmTbRzc50FTj+/TslybFwad11RntVdZp418oVUrHhw3qEOjKUH5tw5E306F+8w91APkGkLoH4Pa6t2ovMG7dPPl7+Ash/Fs2cvM4jrWWv18VGeT9ceoIz55WoYtV4G8Qu7TXsC4Bjtshy1XLrNSqTII0IyLPgQ7aauB4G1QoZ0CHajB42wLZm4+5euOprsfNmwPyOKl2vEE40kHm447gWcaqOYrJyI6AQrFSQoIl3Q8e4F6I90uLR4MaCzjoh0fiXXLgzazQTnxoTbZNLYzKFyLjvJ0obpsOqHKVXFCxMx/3ugQ4iXu56kGa9s5Uw0wLp1D1VcgtLrzlU8pcit74bjMbLuLE1B+blteLEhah0kzDmiKF561LaLCZxyookelEgwjxHid5CS3cuoHBKVye3TrrSuHmt3svP79TeTwXOvnxVG8XKddXce/zPZtSO97ri5svn54LdzofCVPf0sogOFThmsN7CwIDom3A3fezcnrHW2KF66zHltP8IoXnAj/Gbh1xYngmcUKlTYLO3xtv2N0VSMquqXPaxYiOKG8OgQPWqrlch47ac96MCfjz/60Fhxcs6t3RjDPLfIQndioDi6ATF0StHxxL3Oq8Bq87kJ4Q5LjZZU3lFhO+0Y+MB7B+JbvLT1CPsxuFXHtLFoa2CNg6XJDej47QrSJ7N4Ra1nCMDiorA5rxJX79xvPb8KruBwuXUREf1+iC5Pqs8qrldHq3MdWwS+gPIF0a70dkOSP86yi2SwDiSqU1rB0+1I2PdwkqLkGtjwFS8c6/p2+A43Mswr1+VN1/MZRvHS1nTftR7l021KkBuurgd5bf9wnryKLl9uS+1B9+G8lEu3WfEG41yZ3eAE7qFznUXgGbwz9UCZS+/cSPEb7VQyQR4IPgRJVx1Nds5s2J8Rxcv5VvuRdzIJxJnzU7H4hCmvbmi0P2u8Y/WImR59jpceL50PjR+/C9GpLRn6wU1k+o+Xd7LtYTqsYR+mIIsXzu9eoEEPebLyJdsfpnOlr9GfgJ0sf+wPc44oipc+1g+Y4ZcPI+loGCF6NBS/9XWiUwVFVIvenxcOOq943+HfjmALEFc+p1gFdeiQzu0PUq4S7cOxTvS1BV070unIm4ksIE6x9RUvN5iCAYQBF1x4iMufntujO0w4d5g6hHRBEuYlq9so3eako/1wz6/vDqjLqoNcYJ0leOxiUEnPRdHtIuZ84R2C+Y1B7YK777A86YAZ+pzuu57fiuA6aKMhYZlrvghmgA6hC26gWbrz5eUTSgM6gc5lEHkgAiSYJhPdQY3naoo89FwpX/HSAVCC5glqF+ag5zSZ4hW1nmlrOZT0M9u0ja0NiGcNodIhziURwQIwFxhzpyB+6PUozyry04EH8N6FRRbPAcoJCxAU8lRE19GgwSedl34faAtu2Pewzivou7ZYBSleOMZ11vE9aJAgHc8n1o9yyxjEU2ThHeSC7+RF8YpaL3H9UQQDz87FGoqPc8mLWi7dZiVTvPz51dVMwAwXGMN/T+Fa9bPuP1fJWKSrjiY7Tzbsz4jihQbo9SGvmtHBfbki72QKiHvpYA2vSwblXscmHWVynQ/klWxyrI74o320E5UDo6yIXuj8Zp0rhR79iuLXHe/cusNau7ZxIzShhn0J+zDFU7xGmJFv53LjB13wz5Xq77CdK9eZRkcOjTw6e2ElzDn0yzJVV0OEL0bEQ0iQ8qHLCVdFuCxC/BDXYe5lFA66HIm+u5c2FBRY8Ny6dfHmx7mXeNC1J9qnyxDm2uHOCbdOiHZt0/noe6EVL63wxut4YcFhLDwM8V9oYeqQLof+HuYlG0/xSkf74dq+ZINOLh06/VhzDfcELnV68U5nvcFcMLhUwRUZlgsoA1q0ooCw2/Es4OhEwuqB60d90/MAwzL3+cI6hYnnyBNSvbpZosOEY06HjB1zcL5WvHbCP49uV33Ljk6rgzL4ipd7juIpstrilEzxwqi5336mo54hEAvceNFBRWRDuL35bYJzy4aFropZMxHl1gOV4BH1WUUe6N+gPkMhhRtjo8anmLD2B4LDdDOhuY3il4royI3x3rMuv5HGLXubcc+G9DHh4itUrGi/h30P28QJ/oRRvHQ7iPvRb8DAXEu8pOP5hLV7yeKcIA7xlvfQ3JIpXkHPUzrqZQKUoXa5QQA9wBS1XH6bhec6nujpHuhDwuXQ9SH0oIY7XnsQJGpvXHr9ma46qvPM1u8ZUbwAw7kQad/VTEFyD6iem5POsuiXGqJm9TRR24LWz9AR6tARwAisi7KF8qBBgwsbGjNf3JwIbMf8Arxc0PCjY+HcX+K50+EYNGIVjStiULmwP0j0pPygxSlxTNiHSXcQ3BwvHK9HXGBuRzhksPEFq9QvX7YsMHytn9b9Dtu50hF8/M6gywuf6AxiZB6uhk7CnCOK4oWXPObIIOIWxFeoXDkQwnXk8GGxTiZcQKAcOAlzL6NwcOdJ9ql92zF6DT9z3G8/qIbLx3UK/U4W9ifa547HZ5hrd4MzSI+XIAY3/OdQDxJoxUuHzw06Fp09BBzCvYRki+KVjvbDtUu+YmMvVP3BYsNY6BdMHQffpdNFzEJeTrEJchHS8xFhNUOb4SxZ6pR2cWYEdYHklXlQJwYLSGOk3V1HKpFWYfVFO6fbfVfmSRPNumbG0gcJum6XTn9qF2FwC7K2bjOLq2MepSvvIYqXUSLcO8S3uOAYDJY4j4sgxcvNt0K5ENQBHTgt6ahniG7pIiu6+uFHB9XzrV2aumY+LTrdTqI+qy4f7aaGaL54xrUF16UL84kyjRj2duz+9OjZ23aA/WO1pc2/D2Hfw36e/u8wiheO0XXVD8CQjudT9wuCPDDwPkS9dO1EkOKl56QFvTfTUS99fu43XDLx3kEwrXiKj75GPWAXtVxBbZYrV9CnG/BB24y2CXUp3vw89IFchFyk72/aXtR/X3Bf4NXg3AyxP1111D9XNv7OmOLl3EsKFCgoA+F6E8JtIj8A7sZk2LfeNI3aT3bBwTDzoFItBx4Uvb4GKiTCvKLBKG385TG/A0qXe6ki/yCFFPMe8ILDIrzVzEhqWXPsps2b7IKFLhS179KjgzIg33r1TpLGp5xifPPL25Xbv1v/ncyb+7kdYQ5yI8ExicSNyCANXN0wuoyRRMyFQicz7MMUT/HCix3KI0ZeIBihbHPWWWa+XDWbP+oRFC5E20KjoKP/2AMS/AmjFOFwPT8Av/EiwaKsqCvokGBB068XLLA+/FgsEq5oTsKcI4rihfOgo4fG1AksApjbgPJBEVyx3MwV+Wx27CWExRmD/K+T3csoHFzZkn3iPuN+u04g0ieaG5hIuUq0zy9HsmtHemdxwXeMZHfo1EXKGwsNnkGseYIOrBOteGGbzh8j3qed1lQwHxGdQXQYXQcBafOqBOBYX8K8ZHHuoOAayCtq+6FHt2vXrmMjsEK5wAAP2iAn2tUS29Ax1hYobNMjvfiNdhSuMkjriw4Tj/0tW50pNUy48WLGlRBtxmezZ9tPHIdBqovMIJfuAIV5bnFsPL7+9fgdfBwbJFjwF0pEQ7OIKtrQ8qatQad9lWlTETHPiRtcc78TfWorCK4Ry1XAlffHH/cLouB99unBtgH5+IrXu++MtCHjsQ/zu9B+wNKIdg/1Hm2ME7/Dj+1uYBPfcd/hAlfQvPf37tsbW5g1aj3TCgHOA/GVPNRzt25XTorgsO5RnlWXL9oCN0/RbUu0pItLE+/z09kfW/dXtx/eMFh65DjMDzXzyMHPhapHGjc30qUP+x526eN9as7xXA1xLJQKDAi6dk0vsYL9UZ9P7XqM/PCOaNGipZ2fbud/Gtdc5wGE/UGKl7bMQSmGVwWuCS6MLgx/1HqJcweJ83BA24T3dQ3zPOFZL2D+oe5gzivK58SPWBylXPHaLHcu/9Of44n9iQbx9XxGXB/6hbVM24/+Gdr+tWau47x5c+39cYE1kGe66ijyynbJmOIFMNPM4rh4QTVo2ND6ZWcC1kezjIvPwoW2YmAUMb8EI4/Tpk6ONUSJzoN1Y+Bm5Xco0JDrzp2fBzoicGvB8Vq0P7Te7n/Pi+KlFw7W+fXtP8AGDQj7MMVTvJAnOlyTJ76flF2YyfS6jGE7VzhGh23XefjfM6F4oQx6UrNfJv070eh7snuJfPLKQZch2Xe/vuqFQP1jEylXifb5+YS5dj2i7B+P3+h0YmAEL3xf8dKdz6BjoYy5gZdsUrxQVv9+BJUf24LaD724uT7OV/79TrEOLe+OgzKOjrPrzCVyn4ar4ljj8ucswS4P/xNKVzfj/gUXGi1h24ZEnRj/2huYdaKgdCQSKF44LpEEzZtJlH6zGRjAHGbHLSgtOvLozIGxr3j5Azv+8RUrVrKKGfIPUrzgKg5rsC86Uhr2RalnOF6/H+NZl/RAAN6vvnKPfKI8qzjeiS4Ptum15lyasJ+Y7zN+3NhcnfGgY9EHwALsuJ9awr6H9TFB38MqXjhWz4uFwg8PHtwXSNTnE3noaJb47QsGF1atXGk3Byle/qCuOx5l1XNDo9ZLl6/+1C55envQd72ovd6f13IlarN0/vq7cwXHNp+PTofv8D7CYE2ythdpqXiBwmEW7b7TySwKW7NmrcNaghUmatTUyZPsORN17tJVKIwC4XwYydAj+i5/dNbwYkbnOEgQeRETK4NeoHhZtm7dxkZODDoWVhV/ZNOlgxsORiWSLSDp0utPrKI+btyYmF+52+fcBfEQvvVGTnjdRJYLvUhkkO8wRrjQOcZinb7gZVPD1J0zWrbM5Uvup/N/I5qZ871PNILjjsMcAtw/3Edf0Bhh7g9M5+7lgjRhzhHG4qXdIuKVFSP5KJ8egXblhKWwbfv2dmTNbfM/k91Llz4vHNyxYT61y22y5QHchHnf0ovzuH1Bboh+OcJeOywEH8yYlusZRP0rb6xX3Xv2FkQgg9UuaE4T6hoGefSzj84f6g0sIu+Nyolq6M8h03UorIuZuz7t8hNvIrWOHhqk8CCvKO0HBpyWG6u0ltZnthG4gmnRgSDi1XHt7posYBCuC4rMt2bdNL/NxD2rVr26dDTLW0D58kUzj1cWHJOMr46GifTJygx3S0T3RAfXF7wfYMlG/UhV0A5PMMsZ+BESce2NGjUy7Vaz2Bp/iJSGeTNa0P6AJbw3nIDh8Wau1Nnde9g5TWBc1li0+vYb4JLEPlF/oNDouo/BBgSz0hKlnmnW8d412n0ryEXNlSWvz6o7Hp9aeU9XIDHcB8zVda6f+nxgj8EPREn1Jex72D/O/437j8EPSCJ+7ji3VAR++1M5ojyfLn/fEojtaFPrmPmhzc8442Dfo3bwHHRYtyYaF15tHYObL6JRaolSL3U+7juiXc+aOdNa3f22yaXBOwXzpBItH5GXciVrs9z59afun/n3Uadz33FNiLiM96V+5t1+DJqd0aqVXb7EbUtXHXX5ZfNnRi1eAOPmdMAFBNF+4MJzOASWI/iu/mB8gZNFg8uP8sB9ZOOmjbJv7z4zAbaCdbvxLVxB50VjBdemHWZEd695OcPKgwe0RInkEa6QHyo3Ghu82NFQIzw3XuhRBestfW/KhVD0eBmHuZa8nBMPNFZ532wUsBLFS9hrgMtlXtfMyUsZwA5uNrgHcBWF+4yLnJWX/NJ9DF6Om0zdQvlKliplXQ7h9hlWwt7LbOcQ9np1urDXjkEj+LOjvmMR87D1HUoZ6u+27dvsfE08u0eS5LX9wHEbN2y0l4oQ+kFzmPKTw86dpr3dsMGeooKx0EChz2ZB/dq+bbsdRClZqqRtY4I61KleAzqY35m2Cy72JxjPCBcZUc/N8OdGuXPYtte08XCNL126jOl4V0mp3UV7gfOgLuAdETT3w50rr/XMHZ+Oz6jPql7qo7MZWMbgYLoEZcM7CIOA5cw7HO3I4XwHpus6XD5Rnk/US7zvUC/Rocd881QEx39v5hJDGSpXvoKdShDv+Pyol3jnbDH9GViIihUrbtsmWI5TaSPzo1zxGKS6Hde30dRVvCNhIEA7lkp/JNXzHQnpM654AZIbEcVDgwnVQROh0wkTFRx+qHDBqFW7tpmo3CWd2TMvEiABEiABEjhiCGhrUZA18oi5kCwpKDrzcM/CJ6yKmJNHIQESIAEQyArFCyP04427GkYkoXwhLHl+Wb5g6ULIdihdmEjZvUevXJOqWS1IgARIgARI4FghAOsJAsdASYCkuv7OscIplevUimy8OTqp5Me0JEACRw+BrFC8gBNzLCZPnmiVL7gdtjFzndI95wtzuhBBDO6FULq6dOlmXYWOntvJKyEBEiABEiCBgwRGjRxuXftOb9bsEJd0zDfGvFA3Eb52nLkwB3Pjt2QEsATG6HffsXNb4F6F+ULHumtVMmbcTwLHEoGsUbwAHZYvRLdD+GsIoh2ebib9Rg01D3/2efPm2IntyBcRbtp36ERLF2BQSIAESIAEjloCLsgMLhDzeTEvFXOFd+zYaQLBHAwUhABBWN8vlbklRy20FC9s/bp1tu8CRQsRBJ20bNX6kAiDbh8/SYAEjk0CWaV4uVvgAm7gN9b5atS4sV1XQa/74tIm+sQEZSzW99UChMnNcaPIRCCNRGXkPhIgARIgARLILwJ+WPOg81Q360K269AxLYGWgvI/2retWrXSLnmirzNM9Dednt9JgASODQJZqXgBPZSmeXPn2nW+3K1ASFaEO8bnceWOsxGZChfOCQW8f/8+GwFq6xYTQcWE1V67Zk1sgUwcjwXcTm9qFi1Vi3a6fPlJAiRAAiRAAkcrASwBsWTxt3b9JHiA2AhjiIZnFm1179Sj9doPx3WhvzJj2jS7KDWiBTdq1MRyPRzn5jlIgASOLAJZq3g5jFCisCL70iVLzNoVh65t4tIFfUIpq1O3rl3hHcoahQRIgARIgARIgARIgARIgAQyQSDrFS8HBYuwrVm9WjByh8mr27ZtNQE59si+A8pYEaNkFS9R3K4RUMGM4mFxPyyQiUUeKSRAAiRAAiRAAiRAAiRAAiSQSQJHjOKVSUg8NwmQAAmQAAmQAAmQAAmQAAlEIUDFKwo9HksCJEACJEACJEACJEACJEACIQhQ8QoBiUlIgARIgARIgARIgARIgARIIAoBKl5R6PFYEiABEiABEiABEiABEiABEghBgIpXCEhMQgIkQAIkQAIkQAIkQAIkQAJRCFDxikKPx5IACZAACZAACZAACZAACZBACAJUvEJAYhISIAESIAESIAESIAESIAESiEKAilcUejyWBEiABEiABEiABEiABEiABEIQoOIVAhKTkAAJkAAJkAAJkAAJkAAJkEAUAlS8otDjsSRAAiRAAiRAAiRAAiRAAiQQggAVrxCQmIQESIAESIAESIAESIAESIAEohCg4hWFHo8lARIgARIgARIgARIgARIggRAEqHiFgMQkJEACJEACJEACJEACJEACJBCFABWvKPR4LAmQAAmQAAmQAAmQAAmQAAmEIEDFKwQkJiEBEiABEiABEiABEiABEiCBKASoeEWhx2NJgARIgARIgARIgARIgARIIAQBKl4hIDEJCZAACZAACZAACZAACZAACUQhcMQoXj//LPLhwm0yZ9kOWbh6l6zY+INs3rFfdu/90V5/iaKFpELpwlKzUjFpWL2kNKtdWs5qWFYKFIiCh8eSAAmQAAmQAAmQAAmQAAmQQHQCWa94zV+5U0Z+sknGz90su/b+lNIVlyxaULo3rSB9W1WUJjVKpXQsE5MACZAACZAACZAACZAACZBAughkreK1eN0eeXbSWpn4xfexa4Xy1Lp+GatE1a5cXCofV0SgXEGglG3Yuk+WbdgjUNY+XrTdfrqDu51WXn7V9QSpV7W428RPEiABEiABEiABEiABEiABEjgsBLJS8Xpxyjr517g1FkChggXk4raV5byWlaReldSUpsXr98io2Rtl6MwN8uNPxlfRyPU9qslVnava7/xDAiRAAiRAAiRAAiRAAiRAAoeDQFYpXj/s+0nue2O5TPoyx8rVv3UluabbCVKpbJFILDZu2yfPTFwrwz/eaPPpemp5+fNFtaRYkRxrWaTMeTAJkAAJkAAJkAAJkAAJkAAJJCGQNYrX5h375NaXl8iXK3ZK+VKF5e4BNaVTk3JJip/a7qnzt8gDw1bI9zv3y6k1S8mjV9Q1ATmiKXWplYCpSYAESIAESIAESIAESIAEjkUCWaF4wdJ17TOLrNLVsFpJ+eugOjY6YX7cEERDvHPIUlm4ZpdVvp6+pj4tX/kBmnmSAAmQAAmQAAmQAAmQAAnECGSF4nX7q0uteyGUrn/84iQbFj5Wwnz4gjD0Nz7/rVW+4Hb40OA6+XAWZkkCJEACJEACJEACJEACJEACOQQyrni5QBpwL3z+uob5ZunybzgsX794aqF1O2TADZ8Of5MACZAACZAACZAACZAACaSTQEYVL4SMv+jxBfZ6Hrm8btrndCUDhTlft72yxCZ74+bGDDWfDNgRuH/q1KmybNlSKV26jAwcODBfrmD27E9kyuQp8s0330jhwoXl4osvlk6dO+fLucJkunzZMpkydYpN2qfPuVKpUqUwhzENCZAACZAACZAACZBAPhLIqOJ1h5lrhXW6EL3wrv418/Ey42f94PAVNtoh1vn6m5lblm756aefZMqUnE4w8m7QoIHUqFEj6Wm2bt0qn376qU13yimnSJUqVZIec7QmWLp0qSxZskRKlSwpZ7Zpk9Jl3n33XTJu7FgpWaqUzJjxQUrHhkn85JNPyCsvv5wr6S9/9Sv5zW+uy7XtcP6YMmWy3HbrrfaUzzz7nLRo0SL06Rd+/bWsWr1aihUtKu3atw99HBOSAAmQAAmQAAmQAAkkJpAxxQuLHF/xz4WCdbpG33lKSiHjR3+2WaYYaxXy2Lh9v73CSmUK24WVO5tIiL1bVEh81WovQs33/uv/7DpfL9/Q0Oahdkf++sMPP8hZbc6M5VO3bl0Z8trrUtR0bBPJl19+KVdecblNcvc990j//gMSJT9q923btk0G9O8nmzdvlvPP7yv3/fGPKV1rfipeM2fOlN/eeEOsPN3OPluKFy8uzZo2k779+sW2H+4vURSvefPmydVXXWmLfP9f/iK9evU+3MXn+UiABEiABEiABEjgqCSQMcULYd1HfLJRBrU/Xm7uc2IouLO+2SZPjF4ti9ftTpi+XtUS8rve1aVNg7IJ07mdj7+3SobM+E76tapkw9i77en49BUv5Pmb666TX/7yVwmzp+KVg+eO22+X99+fYC1+b771tnEZLJ2Qm78zPxWvm276rXwwY4Y95dA33pT69ev7p8/I72SK17p162TixPdl9uzZ8vjjT0jBgrnXs/v3v5+S55591pZ91LvvSvXq4Z7PjFwsT0oCJEACJEACJEACRwiBjCheP/8s0vG+ubJr70/yxi1mblWV4klxjfxkk/xl2PKk6XSCewbUkr6tKupNgd8XrzdzzR5bICWLFpRpf24qBQoEJsvTxiDFCxkNGz5CateuHTdPKl4i06ZNk1tu/p1l9Oxzz0vz5s3j8oq3Iz8Vr149e8j69eutUjhm7Lh4RTjs25MpXg///SEZOnSoLdfsTz87RPHat2+fXDZ4kCxatEhan3mmPPXUvw/7NfCEJEACJEACJEACJHC0EciI4jXz621y04vfWrc+uPclE1i6EP49L4Lw9GEsX3B7hOvik1edJG1PDmcpC1OeeIrX6U2bynNGmfCtDS5PKl4il182WObPny9t2pwl//zXvxyalD7zU/Fq0byZLcu5550n//d/f0qpXPmZOKrihbJppfeV/74qTZo0yc8iM28SIAESIAESIAESOOoJZETx+ue4NfLSlHVydZeqcl33akkhX/T4V0ndC+NlArfDN25uFG93bPtT49fIC5PXyZWdq8oNPZKXKXZgki9a8cI8reUrlstnB4JmJJq7dawrXnPmfC6//MUvLN2n//MfadmyVRLSwbsPh+KFaIl33nV3cAEysDUdiheCwgwc0F+WL18uZ599jvztoYcycCU8JQmQAAmQAAmQAAkcPQQyonjBegUr1qNX1JOOjY9LSBOBNP745rKEaZLt/NOFtZMG3Ji2YKvc+vJiax2DlSxdohWvfv37yxVXXCl9zz/PZo9Ie8ONy2HlypUPOV1YxQvBJ0aMGG5DmX+zcKGsM65v9UwAj4YNG0rLVq2lW7duh+SNDV9//ZWMGD7c7rvclKlixYoyfvw4qxTOmjVLSpQoKY0aN7Ih2JMpPStXrpRRo96x1imUu6qJwNioUSPp0LFT3PMHFkptvO/ee2T06NF23hTmT8UTuMW9M3KkICgE/u/evUuamyh+iOTXr19/Y4n6Y9Kohrt27pS3335bvvjiC5PHXClSpIg0btxEmjZrKhdddLH97c4PhRBREiE4BlKrVi2jGLa034sVKy63HIgoiA0ICoLyffHFPKvEbNi40fKpV+8kGTR4sJx66qn2OP1n7JgxMnfuHClsyvH73/9B74p9x3U/8sjDIsZvt227dtKhQ8fYviDFC/XwsUcfsWlmmHlpcJGE9O3b14bAx3e/vowcMULuv//P2CUT3p9o64j9wT8kQAIkQAIkQAIkQAIpE8iI4nX+Q/Nl9eYfZNhtTaRW5WIJC411trDeVhTpZCIdYp2wRLJ8ww8y4JH5Ur1CMXnn9vS5VfmK1z333Cv/feUVeeKJx21xOnfuIo88+ughRQujeGGNqgf+cr/t3B+SwYENyP+uu++WChVyR3rUnfP/949/yuuvvSazZn0YmM3v/3C7XZsqaOeECePlzjvuCNplt8EN74477rTR/uIm8nb8bJSJDh3aCxQihGVHePYg+e6770zet8u8uXODdguuHYJrjRdOHmtvIfT66tWrAvOAi93fHvq7VKuWYwXVykjgAWbjZ5/PsbvGjx8vd90Znw0S3Xbb7+WSSy+16d0fKIvvjhplf7q83D73CYW7c6ccZcsPX6/vrQsnv9Ow7NC+nTs88POCCy+098rt3LBhg/Tofo79+dDfH86zEu3y4ycJkAAJkAAJkAAJHMsEMqJ4tb/XWCb2/ijT729qA1okugE9H/hSNpiQ71GkctkiMvbuQy0LOk8E+uhw71wpUbSQzLj/dL0r0vcgxevHH38085cus1YnZA7FyykJ7mTJFC9f4YE7WPMWza2Cs2LFCmtlgbUFAuXhpZdfyTWfTHfO3Tlh2YKFrGixomZB4Mkyffp0t0vGjZ9wiGVuzJjRcq8Jde/kyiuvkgbG0rZhw3fy2pAhMavKr399rVzz61+7ZEk/sW4X3Nwg8YJq7N69W847t09M6UREwbPPOUdOPLGGrDTX//IrL1vFzZ0sSPECp359z3dJpHfv3talcd/+fTJuXI71DzubNWsuzz3/vE0HN9F333vXfnfKEfLu2rWr3YYFlKFcQ14wx/zrX/+0St85JtR8/QYNpXz58gKr2VtvHrTijTEWtCpVqtpj8Cc/FK89e/bI3/72V3uOL4xlEC6EECjGTs44o6X06dPH/bSf/fv1tWlh+fuDiTBJIQESIAESIAESIAESyBuBjCheZ9z+uS3tpw8lj1LX8o45xpvKhEGMIAVMmMLZf8sJhJAom1TKlSgfvS9I8cJ+LFR76aWX2KSwRg0fMVLKlCkTOzSR4rVjxw6rMDjF6jETErxjx4OuZshk06ZNxk3ttpg1yF+TyVe8rrr6arnuuutjyhmYP/jAA8YVcpgtk2950mWA4vGqCcBQS0Vp3L59u10PCgsfQ943rmoVjDtjGIHb4p/+7/9s0lkffRy45tlLL74o//jH/7NpevTsKffee18uqxrY3HjDDTHlNkjx0uHgH37kEenSJUd5QqaY4/SX+++Xd94Zac8Bq2Dbtm3td/fHBdeIN8frxRdekFWrVsr1N9x4iMXRKWXIy7co5ofi5cqMz2RRDYPS1jXuq2+9nVMX9H5+JwESIAESIAESIAESCEeAipfidDgVL5z230+Z9ZKey1kvye+8J1K8nn3mGXn66ZwQ3zfe+Fu58qqr1FUc/KotOliLCWsyOdGKFzrVmEdVqFAht9t+rl27Vvr07mW/Q7l54IEHY/t1GR599DHp1LlzbJ/7MmPGdPndTTfZn4j6p60rLk3Q5/PPPydPmSiGmDsFhdQXKH09TSh3uCJCoYJSh4WLffmSXiS5AAAQQ0lEQVT220VykXGfg/iK16dmDatf//oau2/QoMG55mXZjebPZqO8nn12zhy5oMiFyRQvWDZ9pi7vrVu3SpfOnezPiy+5JNdcrmxSvGCZg6XM5+eug58kQAIkQAIkQAIkQALhCGRE8TrWXQ3drYE17JKLL4q5fcGdDW5tkESK129vvEFmzpxpO8MTJrxvAmGUcFke8ukWIMaOD2Z+GEurFa+bb75FBhvXxyA5u1tX686HIBBwV3Ryw/XX2zlh6JBPmzY9Zilz+/GplQu4GsLlMIw8Zlwvhwx5NZeLnz5Os7nxt0bxNC6O8eSCgQMEVjdfcXjpJWMx+385FjMszFyvXr3ALC6+6EK7nhXC/7/wwou50iRTvHIlPvBj7969snbNGllt/t94w/V2K9xM9Ty/bFK8Jr7/vtx+e06Aj48+/iRXoJGg6+M2EiABEiABEiABEiCBYAIZUbyO9eAa+lZgvo8Lmw4LDyxPRYsWTah4uYV7fWVI5+u+O+sRfr/55ltS76ST7C6teD3x5JPSvn0Hd0iuT7eWlm99cgoZEsNiFiSw+Li5RL169Ra4O4YRF9Gwm5kX9ZAJbOEL5l/dfdeddvNT/35aWrdu7SeJ/YbSAOXBV7y0coNri2eZcq6S/vE4QRjFCwFApk6dIp8YpWXBgvmxeW+xApovnTp1kkcfezy2SZctXcE1YpmbL6m4Gn7yySfym2tz5ucxsqGmyO8kQAIkQAIkQAIkkBqBjChex3I4eRd4Qd+mv5s1kt54Y6jd5CxD2qqj1/vSc8bCKDMIAIGOPETPU9KKl4t8ZxN5f641lqrZsz/J5faHQA1tz2rjpUz8s0OHDvL4E08mTnRgr7PS+e6N7uDnnn1W/v3vp+zPYSYcf201t8ylcZ/x1vG68orLrXLr0oX59JWgZIoX5of9+U9/Csy6igm570K6Z7PipQcG/CAggRfGjSRAAiRAAiRAAiRAAoEEMqJ4HasLKGMdryDFSweqwF2CZWqXidoH5QCiFS9YkVq1PMNub9e+vTz5ZI67nN0Q8Gfo0KHWwoFdQ0zI+JNPzllMOorihcATLc9oYc+GwCAIHpFMapx4orQ4I6fcydL+9a8PyttvvSVt2pwl/zRzvXzR88tgIUREw3hy3XW/kY8/+ugQi5dz18Rx996Xo5jGywPbMYesR48euZIkUry04oyDoHh2M5EnTzERJk8woelh1XRWw7woXtqNM0w4eV3wVCxeU6dMkVtvvcUePuMD495asqTOit9JgARIgARIgARIgARCEsiI4jXz621y04vfSpMapeTlGxomLSoWW4aVLC+CxZDbNCib9NAr/rlQ5q/cKU9edZK0PTl5+qQZHkigLVTxFC8k/cAsaosoexC4EN5q1ncKUryw381b8gNmYJ8vbr4Utk+f8YGUMnOyIFEULxzvwoz7LojYF1UQOATKFRSqoMWTdRj7x594Itfiwf65nVum7yqolY/xZp5cpUqV/EOT/k6keDlLGzJ55ZX/SpNTTsmV3/79+6V1q5xFl33FC8EsXLj5eMoO1h/D/EBIfipeI83iz/f/Ocdq51v8cl0Qf5AACZAACZAACZAACSQkkBHFC9HhO943V7B21hu3NJZ6VQ6NSOeXeuQnm+Qvw5b7mxP+vmdALenbKnkI88Xr98hFjy2wa4pN+3NTMdHn0yZhFS+cUHfWsabU6NGjbTm0xctP98wzz8a1JMEl8Nw+vW1wDFim3p84yeaHP1EVr1tvudnMXZpq8xtu3P10KHm7McIfZ6WDsjR9+gxzP3LfECyYfPXVV9kzgNOf7w+eO7Zo0SJBcAyIr3i5c2BfKhEXkd5JIsUrmXL81VdfyeBBOQsn+4qXDpUfz6I3Yvhw+YtZPBsSRfGKF67fXeMz//mP/Oc/T9tw+Lr+uP38JAESIAESIAESIAESCEcgI4oXivbAsBUy4pONMqj98XJznxNDlRaWrydGr5bF63YnTF+vagn5Xe/qoSxdyOjx91bJkBnfSb9WleTuATUT5p3qzlQUL6w9df755+Va+Bfn8xWvjz/+WK77TU6EQFiFnnv+BSlduvQhRUOoeoSsh9xmLGiXXJrT0cfvqIrX2DFjjNvk3cjKugQ+aSIEBgWo2LZtm8ydOyehVcpmov58/vnn8qtf/sJuCYo4uGvXLune/ZwYp1fMGmJYJFrLvn375PrrrxMseAzxFa+VK1dKX8Pa7Rs16l27uLHdoP7AtXPC+PHSs1dOWH21K2FwDWcRRPoxY8eZBZKrxA6Fq+a1JmCFK5uveOngIUELF+80YfRRdtQXSKqKFxZ1xjpiECwxAMtpPEHgF8zzwgLRf3/4kXjJuJ0ESIAESIAESIAESCAJgYwpXnDrg3tfoYIFZPSdp0ilskWSFPXg7tGfbZYp87dY18CN2/fbHZXKFLaui52blJPeLSocTJzk28Zt+6T3X/8nP/70s3V7hPtjOiUVxQvn1QqNK4eveGG7C0CB7+jU33XX3XLqaadZV0JEEnzNhGOHmxgEUQdfH/qGFC5c2P7Gn6iKF5SHywYPji1QDMXnlltvlQb1G0gRM38Ja4h99tmnZpHjf0jz5s2TzkWLFcx80czuvPMuGXjBBXq3/e7Wl3I7YLVq266dVUAXGTe8hx76m8yfP9/tPkTxwo7HH3/MLPz8X5sGFsHbb79DmrdoIeXKlROsYQar1H+M2yMiGwa52SWyeN17zz0Cl0gI5nch5H1jw2j58mXy2GOP2Xlndqf54yte28waX507d3K7BYtXDxg40F7bggULzMLOf7ZlcglSVby0tQyRI6+55tdWad5t5hU2apQzBxB5Q8Ft3y5n0eg77rhTLjiwJpo7Lz9JgARIgARIgARIgATCE8iY4oUi3jFkqUz84nvp37qS3NU/vZamsAgeHL5Chn+8UbqdVl7+NqhO2MNCp9NKRKI5XjpDHfgB24MUr01mcd/b//AHa43Qx/rfoXQ99PeHDwn5HlXxwnkWfv213GDWonKWF//c7neYICAurft00RTjRUPEeli33HyzXUvMHeN/wg3xB5MuKJw80sIa97vf3SRwXUwmqSpe2s0xKG8syDzzgw8sO1/xQnptrQw6HotmwyURkqritXHjRul+ztmHZAvFCgqWE6wVh7oI0UsRuP38JAESIAESIAESIAESCE8go4rX4nVmbtXjC2xpH7m8rnQy1qrDKVON1ey2V5bYU75xs5lrVjX5XLNUyweXtzNbt7KHBbmNBeUHa0uf3gdd2+774x+NC2LfQ5LC6jR06Ovy4gsvHKL8wLXuwgsulF9fe62NoOcfrIN5JAon75RAKHBvvT3Mz0ZgnXn44Ydj1h2dAGUYNGiQLUeFisnn2uljdRj8ESPfkZo1D1XMcf3PP/ecIBiHFlivEGr/tzfdJPfdd6+MGzs20OKFY+BKiMWUX3rppZjros6rz7nnymVmcemTTjo0cqKzeF166SATDOU2fZj9/tGsWfLggw/K6tWrYvvA5Nw+59r0PYy7JJTWIDe+n81EyOHDh8mDDzwQOxZfcG2DjKWxf/8B0rlTR7vv2mt/I7+65ppYOn1vsegzFn/2BfPz7r33nlzXDKscFqR24hbJhjsrLKb+XDuXjp8kQAIkQAIkQAIkQALJCWRU8ULxXpyyTv41bo2UL1VYnr+uodSsVCx5qdOQYsXGH+QXTy2U73ful+t7VJOrOldNQ66Zy2LLli2yfNkyW4ATa9SQiikqOlFLDgVmlZk3tWr1ailbtqx1f0SkwIIFC+Ypa1i0evfqaRUT3xLjZwgFbNWqVfZ/nTp15IQTTvCThPqNxY6XLl1qXTKrVq0ilSsfH6i0hsrsQCJwWW2YrDH/Kxoe9erVS4mJ47p6zRqpYe4r/qdLEHwFc91g+YNiXb58+VjWsGZeeukl9jcWsYZLIoUESIAESIAESIAESCDvBDKueKHot7+6VCZ9+b00rFZSEP69QumDc5Hyfmnxj9y8Y78NT79wzS7pemp5eWhw+l0M45+de8ISGGLmqSEcPuS90WPyrFCFPR/THSTwh9/fJpMmTbKBN0aYuYJBgVMOpuY3EiABEiABEiABEiCBZASyQvH6YZ+J8vbMIvlyxU6rfP3VzLXKL8sXLF13mrllULpOrVlKnr6mvhQrkjerTDK43B+NAKxel182WDBfCosvP/30f1KyFkU7+7F79HgTxfGuO++wAP5tmLdqleMqe+wS4ZWTAAmQAAmQAAmQQHQCWaF44TI279gnt768xCpfcDtEWPd0z/nCnC6EsYd7IZSuR6+oa6xrRaJTZA75RmCZcZ8c0L+fzf/mm2+RwWa+FSX/CKxfv04GmgiKu0zI+qtNKPnrr88JrpF/Z2TOJEACJEACJEACJHBsEMgaxQu4Yfm6d+gymfy/LZY+oh1e0+2ElELNB902hIx/ZuJaG70Q+7ucUk7uv7g2LV1BsLJwG4JFfPnll1KiZAkblj0Li3jUFAmcwbtI0SKWtV6C4Ki5SF4ICZAACZAACZAACWSAQFYpXu76XcAN/MY6Xxe3rSzntTSBCaqkFnVw8fo9Mmr2Rhk6c4Ndpwv5HQ2BNHAdFBIgARIgARIgARIgARIggSOHQFYqXsCHUPPPTlpr1/lyOLG4cev6ZexCybUrF5fKxxWRkkVz5mft2vuTbNi6T5Zt2GMXVv540Xb76Y7FOl2/6npCvoSMd+fgJwmQAAmQAAmQAAmQAAmQAAkEEchaxcsVdv7KnTLyk00yfu5mgXKVikAp6960gvRtVdEqa6kcy7QkQAIkQAIkQAIkQAIkQAIkkC4CWa94uQs168nKhwu3yZxlO2Th6l2C6IQIC7977482SYmihWwYekRDbFi9pDSrXVrOaljWLPrqcuAnCZAACZAACZAACZAACZAACWSGwBGjeGUGD89KAiRAAiRAAiRAAiRAAiRAAtEJUPGKzpA5kAAJkAAJkAAJkAAJkAAJkEBCAlS8EuLhThIgARIgARIgARIgARIgARKIToCKV3SGzIEESIAESIAESIAESIAESIAEEhKg4pUQD3eSAAmQAAmQAAmQAAmQAAmQQHQCVLyiM2QOJEACJEACJEACJEACJEACJJCQABWvhHi4kwRIgARIgARIgARIgARIgASiE6DiFZ0hcyABEiABEiABEiABEiABEiCBhASoeCXEw50kQAIkQAIkQAIkQAIkQAIkEJ0AFa/oDJkDCZAACZAACZAACZAACZAACSQkQMUrIR7uJAESIAESIAESIAESIAESIIHoBKh4RWfIHEiABEiABEiABEiABEiABEggIQEqXgnxcCcJkAAJkAAJkAAJkAAJkAAJRCdAxSs6Q+ZAAiRAAiRAAiRAAiRAAiRAAgkJUPFKiIc7SYAESIAESIAESIAESIAESCA6ASpe0RkyBxIgARIgARIgARIgARIgARJISICKV0I83EkCJEACJEACJEACJEACJEAC0QlQ8YrOkDmQAAmQAAmQAAmQAAmQAAmQQEICVLwS4uFOEiABEiABEiABEiABEiABEohOgIpXdIbMgQRIgARIgARIgARIgARIgAQSEvj/lpuZbare+usAAAAASUVORK5CYII=;imageBackground=none;" vertex="1" parent="1">
          <mxGeometry x="130" y="-340" width="438.31" height="120" as="geometry" />
        </mxCell>
        <mxCell id="arm5p2x8HVkZM8QBq5t8-45" style="edgeStyle=orthogonalEdgeStyle;orthogonalLoop=1;jettySize=auto;html=1;dashed=1;opacity=50;" edge="1" parent="1" source="arm5p2x8HVkZM8QBq5t8-40" target="arm5p2x8HVkZM8QBq5t8-37">
          <mxGeometry relative="1" as="geometry" />
        </mxCell>
        <mxCell id="arm5p2x8HVkZM8QBq5t8-40" value="&lt;h1&gt;Remote Virtual Network Gateway&lt;/h1&gt;&lt;div&gt;Set the VNET Peering connection to use the remote virtual network&#39;s gateway or Router server.&lt;br&gt;&lt;br&gt;You need to choose this to connect to the PROXY SERVER over the express route connection on VNET2&lt;/div&gt;&lt;div&gt;&lt;br&gt;&lt;/div&gt;" style="text;html=1;strokeColor=#b85450;fillColor=#f8cecc;spacing=5;spacingTop=-20;whiteSpace=wrap;overflow=hidden;rounded=0;dashed=1;" vertex="1" parent="1">
          <mxGeometry x="323" y="-146.5" width="300" height="180" as="geometry" />
        </mxCell>
        <mxCell id="arm5p2x8HVkZM8QBq5t8-46" value="" style="rounded=0;whiteSpace=wrap;html=1;fillColor=#fff2cc;strokeColor=#d6b656;opacity=50;glass=0;shadow=0;sketch=0;" vertex="1" parent="1">
          <mxGeometry x="170" y="-290" width="380" height="30" as="geometry" />
        </mxCell>
      </root>
    </mxGraphModel>
  </diagram>
</mxfile>
